<?xml version="1.0" encoding="utf-8"?>
<!-- Generator: Adobe Illustrator 21.0.0, SVG Export Plug-In . SVG Version: 6.00 Build 0)  -->
<svg version="1.1" id="Layer_1" xmlns="http://www.w3.org/2000/svg" xmlns:xlink="http://www.w3.org/1999/xlink" x="0px" y="0px"
	 viewBox="0 0 552 161.7" style="enable-background:new 0 0 552 161.7;" xml:space="preserve">
<style type="text/css">
	.st0{opacity:0.8;fill:#3F4EA1;}
	.st1{opacity:0.8;fill:#378AB3;}
	.st2{opacity:0.8;fill:#259690;}
	.st3{opacity:0.8;fill:#B4C7B4;}
	.st4{opacity:0.8;fill:#768575;}
	.st5{opacity:0.8;}
	.st6{fill:#259690;}
	.st7{fill:#768575;}
	.st8{opacity:0.8;fill:none;stroke:#259690;stroke-miterlimit:10;}
</style>
<g>
	<polygon class="st0" points="482.2,0 552,39.5 491.7,115.9 	"/>
	<polygon class="st1" points="413.2,41.8 482.2,0 551.1,117.7 	"/>
	<polygon class="st2" points="413.1,41.7 413.6,122.1 527.2,43.8 	"/>
	<polygon class="st3" points="483,161.7 413.6,122.2 473.4,24.4 	"/>
	<polygon class="st4" points="483,161.6 551.1,117.7 439.8,98.4 	"/>
</g>
<g class="st5">
	<path class="st6" d="M6.5,69.8c-1.3-0.5-2.3-1.2-3.2-2c-0.9-0.9-1.5-1.9-2-3.1c-0.4-1.2-0.7-2.5-0.7-4c0-1.6,0.3-3.1,0.8-4.5
		c0.5-1.3,1.3-2.5,2.3-3.4c1-0.9,2.1-1.7,3.4-2.2s2.7-0.8,4.3-0.8c1.3,0,2.5,0.1,3.5,0.2c1,0.1,2.2,0.3,3.4,0.5v16.7h5v3.5H10.9
		C9.2,70.5,7.8,70.3,6.5,69.8z M14.4,67.1V53.3c-0.2-0.1-0.5-0.1-0.8-0.2c-0.3,0-0.7-0.1-1-0.1c-0.3,0-0.7,0-0.9,0
		c-0.3,0-0.5,0-0.7,0c-0.8,0-1.6,0.2-2.4,0.5s-1.4,0.8-1.9,1.4c-0.5,0.6-1,1.3-1.3,2.1c-0.3,0.8-0.5,1.7-0.5,2.7
		c0,2.4,0.6,4.2,1.7,5.4c1.1,1.2,2.7,1.9,4.9,1.9H14.4z M8,46.7c-0.8,0-1.4-0.3-1.9-0.8c-0.5-0.5-0.7-1.2-0.7-2c0-0.8,0.2-1.4,0.7-2
		c0.5-0.5,1.1-0.8,1.9-0.8s1.4,0.3,1.9,0.8c0.5,0.5,0.7,1.2,0.7,2c0,0.8-0.2,1.4-0.7,2C9.4,46.5,8.7,46.7,8,46.7z M14.7,46.8
		c-0.8,0-1.4-0.3-1.9-0.8c-0.5-0.6-0.8-1.2-0.8-2c0-0.8,0.3-1.4,0.8-1.9c0.5-0.5,1.1-0.8,1.9-0.8c0.8,0,1.4,0.3,1.9,0.8
		c0.5,0.5,0.7,1.2,0.7,1.9c0,0.8-0.2,1.4-0.7,2C16.1,46.5,15.4,46.8,14.7,46.8z"/>
	<path class="st6" d="M22.6,67.1h6.2V50.4h3.9v20.2H22.6V67.1z M25.8,79.6c-0.8,0-1.4-0.3-1.9-0.8c-0.5-0.5-0.7-1.2-0.7-1.9
		c0-0.8,0.2-1.4,0.7-2c0.5-0.5,1.1-0.8,1.9-0.8c0.8,0,1.4,0.3,1.9,0.8c0.5,0.5,0.7,1.2,0.7,2c0,0.8-0.2,1.4-0.7,1.9
		C27.1,79.4,26.5,79.6,25.8,79.6z M32.5,79.7c-0.8,0-1.4-0.3-1.9-0.8c-0.5-0.6-0.8-1.2-0.8-2c0-0.8,0.3-1.4,0.8-1.9
		c0.5-0.5,1.1-0.8,1.9-0.8c0.8,0,1.4,0.3,1.9,0.8s0.7,1.2,0.7,1.9c0,0.8-0.2,1.4-0.7,2C33.8,79.4,33.2,79.7,32.5,79.7z"/>
	<path class="st6" d="M39.1,81.5c-0.8,0-1.5,0-2.3-0.1l0.4-3.9c0.7,0.1,1.3,0.1,1.9,0.1c2.1,0,3.6-0.5,4.5-1.6
		c0.9-1.1,1.4-2.7,1.4-5V50.4h3.9v20.3c0,1.6-0.2,3-0.5,4.3c-0.3,1.3-0.8,2.4-1.6,3.4c-0.8,0.9-1.8,1.7-3,2.2
		C42.7,81.2,41.1,81.5,39.1,81.5z"/>
	<path class="st6" d="M60.8,67.1h5v3.5h-8.9v-29c-0.5-0.1-1.1-0.2-1.8-0.2c-0.7-0.1-1.4-0.1-2-0.2v-2.3c1.1-0.1,2.4-0.2,3.7-0.3
		s2.7-0.1,4,0V67.1z"/>
	<path class="st6" d="M64.9,67.1h6.9c-0.7-0.8-1.2-1.7-1.7-2.9c-0.4-1.2-0.7-2.6-0.7-4.1c0-1.4,0.2-2.7,0.7-3.9
		c0.5-1.2,1.1-2.3,2-3.3s1.9-1.7,3.1-2.2c1.2-0.6,2.6-0.8,4.1-0.8c1.4,0,2.7,0.2,3.8,0.7c1.1,0.5,2.1,1.2,2.9,2
		c0.8,0.9,1.4,1.9,1.8,3.1c0.4,1.2,0.6,2.6,0.6,4.1c0,1.9-0.3,3.4-0.9,4.6c-0.6,1.2-1.1,2.1-1.7,2.8h5.8v3.5H64.9V67.1z M75.2,45.5
		c-0.8,0-1.4-0.3-1.9-0.8c-0.5-0.5-0.7-1.2-0.7-2c0-0.8,0.2-1.4,0.7-2c0.5-0.5,1.1-0.8,1.9-0.8c0.8,0,1.4,0.3,1.9,0.8
		c0.5,0.5,0.7,1.2,0.7,2c0,0.8-0.2,1.4-0.7,2C76.6,45.2,76,45.5,75.2,45.5z M78.8,67.1c1.9,0,3.3-0.7,4.3-2c0.9-1.3,1.4-3.1,1.4-5.2
		c0-1-0.1-1.9-0.3-2.7s-0.6-1.6-1-2.2c-0.5-0.6-1-1.1-1.7-1.5c-0.7-0.4-1.5-0.5-2.4-0.5c-1,0-1.8,0.2-2.4,0.6
		c-0.7,0.4-1.2,0.9-1.6,1.6c-0.4,0.7-0.7,1.4-0.9,2.2s-0.3,1.7-0.3,2.5c0,0.8,0.1,1.7,0.3,2.5c0.2,0.9,0.5,1.6,0.9,2.3
		c0.4,0.7,0.9,1.3,1.6,1.7S77.9,67.1,78.8,67.1z M81.9,45.6c-0.8,0-1.4-0.3-1.9-0.8c-0.5-0.6-0.8-1.2-0.8-2c0-0.8,0.3-1.4,0.8-1.9
		s1.1-0.8,1.9-0.8c0.8,0,1.4,0.3,1.9,0.8s0.7,1.2,0.7,1.9c0,0.8-0.2,1.4-0.7,2C83.3,45.3,82.7,45.6,81.9,45.6z"/>
	<path class="st6" d="M91,67h1.5c3.3,0,6.6-0.7,9.8-2.1c-0.8-1-1.6-1.9-2.3-2.6c-0.7-0.7-1.4-1.4-2-2c-0.7-0.6-1.4-1.1-2.2-1.6
		c-0.8-0.5-1.8-1-2.9-1.5l0.6-4.1c1.7-1.1,3.5-2,5.3-2.7c1.9-0.7,3.7-1.1,5.5-1.1c1.5,0,2.8,0.2,4,0.6c1.1,0.4,2.1,0.9,2.8,1.6
		c0.8,0.7,1.3,1.5,1.7,2.4c0.4,0.9,0.6,1.9,0.6,3c0,1.3-0.4,2.6-1.1,4s-1.9,2.7-3.4,4c0.9,0.7,1.8,1.2,2.9,1.6
		c1,0.4,2.2,0.6,3.4,0.6h0.6v3.5h-0.8c-2,0-3.8-0.3-5.4-0.8c-1.6-0.6-3.1-1.3-4.4-2.3c-1.9,1-3.9,1.8-6,2.3s-4,0.8-6,0.8H91V67z
		 M105.6,62.8c1-0.8,1.8-1.8,2.5-2.7c0.7-1,1-1.9,1-2.9c0-1.3-0.5-2.4-1.4-3.1c-1-0.8-2.3-1.1-3.9-1.1c-1.4,0-2.6,0.2-3.8,0.7
		c-1.2,0.5-2.3,1.1-3.4,1.9c1.7,0.4,3.2,1.2,4.7,2.5C102.8,59.3,104.2,60.9,105.6,62.8z"/>
	<path class="st6" d="M114.7,67.1h6V38.5h3.9v32.1h-9.9V67.1z"/>
	<path class="st6" d="M137.2,70.5h-3.9v-29c-0.5-0.1-1.1-0.2-1.8-0.2c-0.7-0.1-1.4-0.1-2-0.2v-2.3c1.1-0.1,2.4-0.2,3.7-0.3
		c1.4-0.1,2.7-0.1,4,0V70.5z"/>
	<path class="st6" d="M160.9,69.6c-2.1-0.6-3.8-1.5-5.1-2.7c-1.3-1.1-2.3-2.5-2.8-4.1c-0.6-1.6-0.9-3.4-0.9-5.4c0-0.9,0.1-2,0.3-3.1
		c0.2-1.2,0.4-2.2,0.6-3.1l4.3-0.9c-0.3,1.1-0.6,2.2-0.8,3.2c-0.2,1-0.3,2.2-0.3,3.4c0,1.5,0.2,2.9,0.6,4.1c0.4,1.2,1.1,2.3,2,3.2
		c1,0.9,2.3,1.6,4,2.1c1.7,0.5,3.8,0.7,6.5,0.7h7.2V50.4h3.9v20.1h-11.9C165.5,70.5,163,70.2,160.9,69.6z M164.7,48.7
		c-0.8,0-1.4-0.3-1.9-0.8c-0.5-0.5-0.7-1.2-0.7-2c0-0.8,0.2-1.4,0.7-2c0.5-0.5,1.1-0.8,1.9-0.8c0.8,0,1.4,0.3,1.9,0.8
		c0.5,0.5,0.7,1.2,0.7,2c0,0.8-0.2,1.4-0.7,2C166.1,48.4,165.4,48.7,164.7,48.7z M171.4,48.7c-0.8,0-1.4-0.3-1.9-0.8
		c-0.5-0.6-0.8-1.2-0.8-2c0-0.8,0.3-1.4,0.8-1.9c0.5-0.5,1.1-0.8,1.9-0.8c0.8,0,1.4,0.3,1.9,0.8c0.5,0.5,0.7,1.2,0.7,1.9
		c0,0.8-0.2,1.4-0.7,2C172.8,48.5,172.1,48.7,171.4,48.7z"/>
	<path class="st6" d="M192.1,70.5h-3.9v-29c-0.5-0.1-1.1-0.2-1.8-0.2c-0.7-0.1-1.4-0.1-2-0.2v-2.3c1.1-0.1,2.4-0.2,3.7-0.3
		c1.4-0.1,2.7-0.1,4,0V70.5z"/>
	<path class="st6" d="M196.5,67.1h13.9c0-3.8-0.9-6.9-2.8-9.1c-1.8-2.3-4.7-3.9-8.6-5.1l0.4-4.2c2.2,0.5,4.3,1.2,6.1,2.2
		c1.8,1,3.4,2.2,4.7,3.6c1.3,1.4,2.3,3.1,3,5c0.7,1.9,1.1,4,1.1,6.3v1.2h5v3.5h-22.8V67.1z"/>
	<path class="st6" d="M217.6,67.1h16.1v-5c0-3-0.8-5.1-2.3-6.3c-1.5-1.2-3.8-1.9-6.9-1.9c-0.8,0-1.6,0-2.3,0c-0.7,0-1.3,0.1-1.8,0.1
		l0.4-3.5c0.5-0.1,1.1-0.1,1.7-0.1c0.6,0,1.4,0,2.4,0c1.6,0,3.1,0.2,4.6,0.5c1.5,0.3,2.9,0.9,4.1,1.7c1.2,0.8,2.1,1.9,2.9,3.3
		c0.7,1.4,1.1,3.1,1.1,5.3v9.4h-20.1V67.1z"/>
	<path class="st6" d="M247.8,81.4c-0.8,0-1.8,0-2.8-0.1c-1-0.1-1.9-0.2-2.6-0.3l-0.3-4.3c1,0.2,2,0.4,3,0.6s2.1,0.2,3.1,0.2
		c5.5,0,8.3-2.3,8.4-7h-3.6c-1.8,0-3.4-0.3-4.7-0.9c-1.3-0.6-2.3-1.3-3.1-2.2c-0.8-0.9-1.4-2-1.8-3.1c-0.4-1.2-0.5-2.4-0.5-3.7
		c0-1.5,0.2-2.8,0.7-4.2c0.5-1.3,1.2-2.5,2.1-3.5c0.9-1,2-1.8,3.4-2.4c1.3-0.6,2.8-0.9,4.5-0.9c1.3,0,2.5,0.1,3.5,0.2
		c1.1,0.1,2.2,0.3,3.4,0.5v16.7h5v3.5h-5c-0.1,1.3-0.3,2.5-0.7,3.8c-0.4,1.3-1.1,2.5-2.1,3.5c-1,1.1-2.3,1.9-3.9,2.6
		C252.1,81.1,250.1,81.4,247.8,81.4z M256.5,67.1V53.3c-0.2-0.1-0.5-0.1-0.8-0.2c-0.3,0-0.7-0.1-1-0.1c-0.3,0-0.7,0-0.9,0
		c-0.3,0-0.5,0-0.7,0c-0.6,0-1.3,0.1-2.1,0.4c-0.7,0.3-1.4,0.7-2,1.3c-0.6,0.6-1.1,1.3-1.5,2.1s-0.6,1.8-0.6,3
		c0,2.4,0.6,4.2,1.7,5.5c1.1,1.2,2.7,1.8,4.8,1.8H256.5z"/>
	<path class="st6" d="M264.6,67.1h6V38.5h3.9v32.1h-9.9V67.1z"/>
	<path class="st6" d="M287.1,70.5h-3.9v-29c-0.5-0.1-1.1-0.2-1.8-0.2c-0.7-0.1-1.4-0.1-2-0.2v-2.3c1.1-0.1,2.4-0.2,3.7-0.3
		c1.4-0.1,2.7-0.1,4,0V70.5z"/>
	<path class="st6" d="M301.4,81.5c-0.8,0-1.5,0-2.3-0.1l0.4-3.9c0.7,0.1,1.3,0.1,1.9,0.1c2.1,0,3.6-0.5,4.5-1.6
		c0.9-1.1,1.4-2.7,1.4-5V50.4h3.9v20.3c0,1.6-0.2,3-0.5,4.3c-0.3,1.3-0.8,2.4-1.6,3.4c-0.8,0.9-1.8,1.7-3,2.2
		C304.9,81.2,303.3,81.5,301.4,81.5z M309.3,46.8c-0.7,0-1.3-0.3-1.8-0.8c-0.5-0.5-0.7-1.2-0.7-1.9c0-0.7,0.2-1.3,0.7-1.8
		c0.5-0.5,1.1-0.8,1.8-0.8c0.7,0,1.3,0.3,1.8,0.8c0.5,0.5,0.7,1.1,0.7,1.8c0,0.7-0.2,1.4-0.7,1.9S310,46.8,309.3,46.8z"/>
	<path class="st6" d="M326.1,70.7c0,1.6-0.2,3-0.5,4.3c-0.3,1.3-0.8,2.4-1.6,3.4c-0.8,0.9-1.8,1.7-3,2.2c-1.3,0.5-2.9,0.8-4.8,0.8
		c-0.8,0-1.5,0-2.3-0.1l0.4-3.9c0.7,0.1,1.3,0.1,1.9,0.1c2.1,0,3.6-0.5,4.5-1.6c0.9-1.1,1.4-2.7,1.4-5V50.4h3.9V67h5.9v3.5h-5.9
		V70.7z"/>
	<path class="st6" d="M339.3,31.1l9.8-1.4v2.6l-9.8,1.4V31.1z"/>
	<path class="st6" d="M331.1,67h6.9c-0.6-0.7-1.1-1.6-1.6-2.8c-0.5-1.2-0.7-2.6-0.7-4.3c0-1.3,0.2-2.5,0.6-3.8s1.1-2.3,1.9-3.3
		s1.9-1.7,3.1-2.3c1.2-0.6,2.7-0.9,4.3-0.9c1.5,0,2.9,0.3,4,0.8s2.1,1.2,2.8,2.1c0.8,0.9,1.3,2,1.7,3.2c0.4,1.2,0.6,2.5,0.6,3.8
		c0,1.6-0.3,3.1-0.8,4.4c-0.5,1.3-1.2,2.5-2.2,3.4c-0.9,1-2.1,1.7-3.4,2.3s-2.8,0.8-4.4,0.8h-13V67z M344.9,67.1
		c1.9,0,3.4-0.7,4.3-2c0.9-1.3,1.4-3.1,1.4-5.2c0-0.8-0.1-1.7-0.3-2.5c-0.2-0.8-0.5-1.6-1-2.2c-0.5-0.6-1-1.2-1.7-1.6
		s-1.5-0.6-2.5-0.6c-0.9,0-1.7,0.2-2.4,0.6c-0.7,0.4-1.2,0.9-1.7,1.5c-0.4,0.6-0.8,1.4-1,2.2c-0.2,0.8-0.3,1.7-0.3,2.7
		c0,0.8,0.1,1.7,0.3,2.5c0.2,0.8,0.5,1.6,0.9,2.3c0.4,0.7,1,1.2,1.6,1.7C343.3,66.9,344,67.1,344.9,67.1z M344.9,45.6
		c-0.7,0-1.3-0.3-1.8-0.8c-0.5-0.5-0.7-1.2-0.7-1.9c0-0.7,0.2-1.3,0.7-1.8c0.5-0.5,1.1-0.8,1.8-0.8s1.3,0.3,1.8,0.8
		c0.5,0.5,0.7,1.1,0.7,1.8c0,0.7-0.2,1.4-0.7,1.9C346.2,45.3,345.6,45.6,344.9,45.6z"/>
</g>
<g class="st5">
	<path class="st7" d="M160.1,114.1c0,2.7-1,4.9-2.9,6.5c-2,1.6-4.6,2.4-7.8,2.4c-2.3,0-4.3-0.3-6-1c-1.7-0.6-3.2-1.7-4.7-3.2
		l2.3-2.3c1.3,1.3,2.5,2.1,3.8,2.7c1.3,0.5,2.9,0.8,4.7,0.8c2.3,0,4.1-0.5,5.4-1.5c1.3-1,2-2.4,2-4.3c0-1.7-0.5-3-1.5-3.9
		c-0.5-0.4-1-0.8-1.5-0.9c-0.5-0.2-1.4-0.4-2.5-0.5l-3.6-0.6c-2.5-0.4-4.4-1.2-5.7-2.4c-1.6-1.4-2.4-3.3-2.4-5.8
		c0-2.7,0.9-4.8,2.7-6.4c1.8-1.6,4.2-2.4,7.3-2.4c2,0,3.7,0.3,5.1,0.8c1.4,0.5,2.8,1.4,4.2,2.6l-2.1,2.1c-2-1.8-4.4-2.7-7.3-2.7
		c-2,0-3.7,0.5-4.8,1.6c-1.2,1.1-1.8,2.5-1.8,4.2c0,1.6,0.5,2.8,1.4,3.6c1,0.8,2.4,1.4,4.2,1.7l3.4,0.5c2.5,0.4,4.4,1.1,5.7,2.2
		C159.2,109.4,160.1,111.4,160.1,114.1z"/>
	<path class="st7" d="M183.2,122.7h-3.1v-2.4c-1.5,1.8-3.6,2.7-6.1,2.7c-2.4,0-4.2-0.7-5.6-2c-1.5-1.4-2.2-3.4-2.2-6v-13.8h3.2v13.3
		c0,1.9,0.5,3.3,1.4,4.3c0.9,1,2.2,1.5,3.9,1.5c1.7,0,3-0.5,3.9-1.5c1-1,1.4-2.4,1.4-4.3v-13.3h3.2V122.7z"/>
	<path class="st7" d="M208.2,111.9c0,4.4-0.9,7.4-2.6,9.2c-1.3,1.3-3,1.9-5.3,1.9c-2.6,0-4.6-0.9-6.1-2.8v2.6h-3.2V91.5h3.2v12.1
		c1.4-1.8,3.5-2.8,6.1-2.8c2.2,0,4,0.6,5.3,1.9C207.3,104.5,208.2,107.5,208.2,111.9z M204.9,115c0.1-0.9,0.2-1.9,0.2-3.1
		c0-1.2-0.1-2.2-0.2-3.1c-0.1-0.9-0.4-1.7-0.7-2.6c-0.4-0.8-0.9-1.5-1.7-1.9c-0.8-0.4-1.7-0.7-2.8-0.7c-1.1,0-2,0.2-2.8,0.7
		c-0.8,0.4-1.3,1.1-1.7,1.9c-0.4,0.8-0.6,1.7-0.7,2.6c-0.1,0.9-0.2,1.9-0.2,3.1c0,1.2,0.1,2.2,0.2,3.1s0.4,1.7,0.7,2.6
		c0.4,0.8,0.9,1.5,1.7,1.9c0.8,0.4,1.7,0.7,2.8,0.7c1.1,0,2-0.2,2.8-0.7c0.8-0.4,1.3-1.1,1.7-1.9C204.5,116.7,204.7,115.9,204.9,115
		z"/>
	<path class="st7" d="M231,122.7h-3.1v-2.6c-1.5,1.9-3.5,2.8-6.1,2.8c-2.3,0-4-0.6-5.3-1.9c-1.8-1.8-2.6-4.8-2.6-9.2
		c0-4.4,0.9-7.4,2.6-9.2c1.3-1.3,3-1.9,5.3-1.9c2.6,0,4.7,0.9,6.1,2.8V91.5h3.2V122.7z M227.6,115c0.1-0.9,0.2-1.9,0.2-3.1
		c0-1.2-0.1-2.2-0.2-3.1c-0.1-0.9-0.4-1.7-0.7-2.6c-0.4-0.8-0.9-1.5-1.7-1.9c-0.8-0.4-1.7-0.7-2.8-0.7c-1.1,0-2,0.2-2.8,0.7
		c-0.8,0.4-1.3,1.1-1.7,1.9c-0.4,0.8-0.6,1.7-0.7,2.6c-0.1,0.9-0.2,1.9-0.2,3.1c0,1.2,0.1,2.2,0.2,3.1c0.1,0.9,0.4,1.7,0.7,2.6
		c0.4,0.8,0.9,1.5,1.7,1.9c0.8,0.4,1.7,0.7,2.8,0.7c1.1,0,2-0.2,2.8-0.7c0.8-0.4,1.3-1.1,1.7-1.9C227.2,116.7,227.5,115.9,227.6,115
		z"/>
	<path class="st7" d="M242.2,95h-3.5v-3.5h3.5V95z M242,122.7h-3.2v-21.6h3.2V122.7z"/>
	<path class="st7" d="M265.1,101.1l-7.9,21.6h-2.8l-7.9-21.6h3.4l5.9,17.3l5.9-17.3H265.1z"/>
	<path class="st7" d="M272.9,95h-3.5v-3.5h3.5V95z M272.7,122.7h-3.2v-21.6h3.2V122.7z"/>
	<path class="st7" d="M296.2,116.3c0,2-0.8,3.7-2.4,4.8c-1.6,1.2-3.7,1.8-6.4,1.8c-3.7,0-6.7-1-8.9-3.1l2.1-2.1
		c1.6,1.7,3.8,2.5,6.7,2.5c1.8,0,3.2-0.3,4.2-1s1.5-1.6,1.5-2.8c0-1.9-1.2-3-3.6-3.2l-3.5-0.3c-4.3-0.4-6.4-2.3-6.4-5.8
		c0-1.9,0.7-3.5,2.2-4.6c1.5-1.1,3.4-1.7,5.7-1.7c3.3,0,5.9,0.8,7.8,2.3l-2.1,2.1c-1.5-1.1-3.4-1.7-5.7-1.7c-1.5,0-2.7,0.3-3.6,0.9
		s-1.2,1.5-1.2,2.6c0,1.9,1.3,3,3.8,3.2l3.5,0.3c2,0.2,3.6,0.7,4.7,1.6C295.6,113,296.2,114.4,296.2,116.3z"/>
	<path class="st7" d="M305.7,95h-3.5v-3.5h3.5V95z M305.5,122.7h-3.2v-21.6h3.2V122.7z"/>
	<path class="st7" d="M329.9,111.9c0,3.9-0.9,6.8-2.6,8.6c-1.6,1.6-3.7,2.5-6.2,2.5c-2.5,0-4.5-0.8-6.2-2.5
		c-1.8-1.8-2.6-4.6-2.6-8.6s0.9-6.8,2.6-8.6c1.6-1.6,3.7-2.5,6.2-2.5c2.5,0,4.5,0.8,6.2,2.5C329,105.1,329.9,107.9,329.9,111.9z
		 M326.8,111.9c0-3.3-0.6-5.5-1.7-6.7c-1.1-1.1-2.4-1.6-3.9-1.6c-1.5,0-2.8,0.5-3.9,1.6c-1.2,1.2-1.8,3.4-1.8,6.7
		c0,3.3,0.6,5.5,1.8,6.7c1.1,1.1,2.4,1.6,3.9,1.6c1.6,0,2.9-0.5,3.9-1.6C326.2,117.4,326.8,115.2,326.8,111.9z"/>
	<path class="st7" d="M353.6,122.7h-3.2v-13.3c0-1.9-0.5-3.3-1.4-4.3c-0.9-1-2.2-1.5-3.9-1.5c-1.7,0-3,0.5-3.9,1.5
		c-0.9,1-1.4,2.4-1.4,4.3v13.3h-3.2v-21.6h3.2v2.4c1.5-1.8,3.5-2.6,6-2.6c2.3,0,4.2,0.7,5.5,2c1.5,1.5,2.2,3.5,2.2,6V122.7z"/>
</g>
<line class="st8" x1="377.9" y1="40.3" x2="377.9" y2="121.4"/>
</svg>
