<svg xmlns="http://www.w3.org/2000/svg" xmlns:xlink="http://www.w3.org/1999/xlink" width="150px" height="65px" viewBox="0 0 150 65" version="1.1">
    <title>5D0989BD-B0A1-487B-A031-C471A26B878B</title>
    <defs>
        <polygon id="path-1" points="0 64.4741573 149.883708 64.4741573 149.883708 0 0 0"/>
    </defs>
    <g id="Landing-Page" stroke="none" stroke-width="1" fill="none" fill-rule="evenodd">
        <g id="Landing" transform="translate(-1120.000000, -45.000000)">
            <g id="Ehkam_Logo" transform="translate(1120.000000, 45.000000)">
                <path d="M3.63477528,54.7870506 C3.63477528,54.799691 3.65837079,54.7825562 3.7058427,54.7364888 C3.75331461,54.6898596 3.82382022,54.6297472 3.91792135,54.5561517 C4.01146067,54.4822753 4.12129213,54.4064326 4.24685393,54.3277809 C4.37241573,54.2494101 4.5041573,54.1805899 4.64179775,54.1201966 C4.7794382,54.0600843 4.91848315,54.0165449 5.05977528,53.9892978 C5.20106742,53.9617697 5.33617978,53.960927 5.46567416,53.9862079 C5.6038764,54.0173876 5.70640449,54.0727247 5.77297753,54.1527809 C5.83926966,54.233118 5.87719101,54.3480056 5.88617978,54.4974438 C5.88786517,54.5628933 5.88926966,54.6159831 5.89039326,54.6558708 C5.89123596,54.6957584 5.89235955,54.7286236 5.89320225,54.7541854 C5.89404494,54.7797472 5.89432584,54.8025 5.89432584,54.8224438 C5.89432584,54.8423876 5.89404494,54.8651404 5.89320225,54.8907022 C5.89235955,54.916264 5.89123596,54.9491292 5.89039326,54.9892978 C5.88926966,55.0291854 5.88786517,55.083118 5.88617978,55.1502528 C5.88617978,55.2106461 5.87353933,55.2550281 5.84797753,55.2845225 C5.82241573,55.3134551 5.78140449,55.3280618 5.72494382,55.3280618 L3.63477528,55.3280618 L3.63477528,54.7870506 Z M1.02831461,57.2050281 C1.2047191,57.2050281 1.36426966,57.1811517 1.50640449,57.1336798 C1.64825843,57.0867697 1.76960674,57.0148596 1.86988764,56.9179494 C1.96960674,56.8216011 2.04657303,56.7022191 2.09910112,56.5600843 C2.15219101,56.4182303 2.17859551,56.255309 2.17859551,56.0710393 L2.17859551,55.855309 L2.69797753,55.855309 L2.72494382,55.855309 L6.95191011,55.855309 L6.9791573,55.855309 L9.05837079,55.855309 L9.08589888,55.855309 L11.1651124,55.855309 L11.1923596,55.855309 L13.271573,55.855309 L13.2991011,55.855309 L13.7114607,55.855309 C13.8971348,55.8533427 14.0308427,55.8179494 14.1128652,55.7485674 C14.2005056,55.8179494 14.3350562,55.8533427 14.5176404,55.855309 L14.935618,55.855309 L14.9625843,55.855309 L15.3535955,55.855309 C15.5628652,55.8516573 15.7263483,55.7918258 15.8440449,55.6763764 C15.9614607,55.560927 16.0221348,55.3935112 16.0257865,55.1749719 L16.0257865,52.1123315 L15.3019101,52.1123315 L15.3019101,52.6474438 L15.4875843,52.6474438 L15.4875843,55.0850843 C15.485618,55.1432303 15.4805618,55.1878933 15.4724157,55.2187921 C15.4642697,55.2494101 15.4530337,55.2724438 15.4381461,55.2867697 C15.4235393,55.3016573 15.4005056,55.3120506 15.368764,55.3185112 C15.3367416,55.324691 15.2906742,55.3280618 15.2305618,55.3280618 L14.9625843,55.3280618 L14.935618,55.3280618 L14.6401124,55.3280618 C14.58,55.3280618 14.5339326,55.324691 14.5024719,55.3185112 C14.4704494,55.3120506 14.4471348,55.3016573 14.4325281,55.2867697 C14.4179213,55.2724438 14.4066854,55.2494101 14.3985393,55.2187921 C14.3903933,55.1878933 14.3853371,55.1432303 14.3836517,55.0850843 L14.3836517,53.6668258 L13.8451685,53.6668258 L13.8451685,55.0850843 C13.8432022,55.1432303 13.838427,55.1878933 13.83,55.2187921 C13.8218539,55.2494101 13.810618,55.2724438 13.7960112,55.2867697 C13.7816854,55.3016573 13.7583708,55.3120506 13.7260674,55.3185112 C13.6946067,55.324691 13.6485393,55.3280618 13.588427,55.3280618 L13.2991011,55.3280618 L13.271573,55.3280618 L11.1923596,55.3280618 L11.1651124,55.3280618 L9.08589888,55.3280618 L9.05837079,55.3280618 L6.9791573,55.3280618 L6.95191011,55.3280618 L6.41904494,55.3280618 C6.42269663,55.3168258 6.42438202,55.2679494 6.42438202,55.180309 C6.42634831,55.1128933 6.42775281,55.0572753 6.42859551,55.013736 C6.4294382,54.9699157 6.4305618,54.9322753 6.43140449,54.9002528 C6.43196629,54.8685112 6.43252809,54.8401404 6.43252809,54.8157022 C6.43252809,54.7909831 6.43196629,54.7623315 6.43140449,54.7297472 C6.4305618,54.696882 6.4294382,54.6583989 6.42859551,54.6148596 C6.42775281,54.5710393 6.42634831,54.513736 6.42438202,54.4423876 C6.42073034,54.3227247 6.39994382,54.2086798 6.36174157,54.1010955 C6.32353933,53.9937921 6.27101124,53.8966011 6.2047191,53.8098034 C6.13814607,53.7235674 6.05837079,53.6508146 5.96539326,53.5915449 C5.87269663,53.5322753 5.76988764,53.4909831 5.65668539,53.4673876 C5.53280899,53.4454775 5.40724719,53.4322753 5.2794382,53.4275 C5.15191011,53.4232865 5.02831461,53.4308708 4.90808989,53.4508146 C4.8552809,53.4617697 4.79348315,53.4777809 4.72241573,53.4988483 C4.65134831,53.5196348 4.57494382,53.5454775 4.49292135,53.5763764 C4.41089888,53.6075562 4.32578652,53.6429494 4.23730337,53.683118 C4.14910112,53.7230056 4.06146067,53.7676685 3.97494382,53.8171067 C3.88842697,53.866264 3.8055618,53.9193539 3.72662921,53.9766573 C3.64713483,54.0339607 3.61679775,54.0539045 3.63477528,54.0353652 L3.63477528,52.1092416 L2.91061798,52.1092416 L2.91061798,52.6421067 L3.09657303,52.6421067 L3.09657303,55.3280618 L2.72494382,55.3280618 L2.69797753,55.3280618 L2.17859551,55.3280618 L2.17859551,53.4260955 L1.45162921,53.4260955 L1.45162921,53.9564326 L1.63758427,53.9564326 L1.63758427,55.9999719 C1.63758427,56.4937921 1.38786517,56.7131742 0.888988764,56.6586798 C0.841516854,56.6510955 0.793202247,56.6429494 0.743764045,56.6339607 C0.69488764,56.624691 0.622696629,56.6030618 0.528033708,56.5685112 C0.508370787,56.694073 0.493764045,56.785927 0.484494382,56.844073 C0.475505618,56.9027809 0.464269663,56.9873315 0.451629213,57.0985674 C0.564550562,57.1454775 0.667640449,57.1755337 0.760337079,57.1873315 C0.853314607,57.1991292 0.942640449,57.2050281 1.02831461,57.2050281 L1.02831461,57.2050281 Z" id="Fill-1" fill="#585B5C"/>
                <mask id="mask-2" fill="white">
                    <use xlink:href="#path-1"/>
                </mask>
                <g id="Clip-4"/>
                <polygon id="Fill-3" fill="#585B5C" mask="url(#mask-2)" points="4.41095506 53.1146067 4.95196629 53.1146067 4.95196629 52.5710674 4.41095506 52.5710674"/>
                <polygon id="Fill-5" fill="#585B5C" mask="url(#mask-2)" points="13.8342697 53.1146067 14.3755618 53.1146067 14.3755618 52.5710674 13.8342697 52.5710674"/>
                <polygon id="Fill-6" fill="#585B5C" mask="url(#mask-2)" points="16.7551404 55.8552528 17.2823876 55.8552528 17.2823876 52.1091854 16.5719944 52.1091854 16.5719944 52.6395225 16.7551404 52.6395225"/>
                <path d="M19.3836517,56.9453652 C19.4839326,57.0254213 19.5985393,57.0877809 19.7280337,57.1313202 C19.8572472,57.1748596 19.9940449,57.1976124 20.1381461,57.1995787 L20.6651124,57.1995787 C20.8089326,57.1976124 20.9460112,57.1748596 21.0749438,57.1313202 C21.2038764,57.0877809 21.3190449,57.0254213 21.4193258,56.9453652 C21.5196067,56.865309 21.5985393,56.7658708 21.6572472,56.6476124 C21.7153933,56.5293539 21.7443258,56.3953652 21.7443258,56.245927 L21.7499438,53.8414326 L21.0260674,53.8414326 L21.0260674,54.3745787 L21.2117416,54.3745787 L21.2117416,56.1692416 C21.2117416,56.2622191 21.196573,56.3389045 21.1667978,56.3990169 C21.1364607,56.4591292 21.0932022,56.5077247 21.0367416,56.5450843 C20.9802809,56.5824438 20.910618,56.6102528 20.8277528,56.6285112 C20.7448876,56.6467697 20.6524719,56.656882 20.5502247,56.6585674 L20.2527528,56.6585674 C20.0541573,56.6549157 19.899382,56.6082865 19.7878652,56.5189607 C19.677191,56.4299157 19.6128652,56.2933989 19.5968539,56.1094101 L19.5968539,55.5192416 L19.782809,55.5192416 L19.782809,54.9835674 L19.0586517,54.9835674 L19.0586517,56.245927 C19.0586517,56.3953652 19.0875843,56.5293539 19.1457303,56.6476124 C19.2041573,56.7658708 19.2836517,56.865309 19.3836517,56.9453652" id="Fill-7" fill="#585B5C" mask="url(#mask-2)"/>
                <polygon id="Fill-8" fill="#585B5C" mask="url(#mask-2)" points="19.8890449 54.3856742 20.4300562 54.3856742 20.4300562 53.841573 19.8890449 53.841573"/>
                <polygon id="Fill-9" fill="#585B5C" mask="url(#mask-2)" points="31.2691011 56.661236 31.7932584 56.661236 31.7932584 56.1339888 31.2691011 56.1339888"/>
                <path d="M29.9137921,55.8552528 L33.1050843,55.8552528 L33.1323315,55.8552528 L33.5449719,55.8552528 C33.7306461,55.8532865 33.864073,55.8178933 33.9463764,55.7485112 C34.0340169,55.8178933 34.1685674,55.8532865 34.3511517,55.8552528 L34.7688483,55.8552528 L34.7963764,55.8552528 L35.1868258,55.8552528 C35.3966573,55.8516011 35.5601404,55.7917697 35.6775562,55.6763202 C35.7949719,55.5608708 35.8553652,55.3934551 35.8590169,55.1749157 L35.8590169,52.1122753 L35.1351404,52.1122753 L35.1351404,52.6473876 L35.3208146,52.6473876 L35.3208146,55.0850281 C35.3188483,55.1431742 35.314073,55.1878371 35.3056461,55.218736 C35.2975,55.2499157 35.2859831,55.2723876 35.2716573,55.2869944 C35.2570506,55.3016011 35.2334551,55.3119944 35.2019944,55.3184551 C35.1699719,55.3246348 35.1239045,55.3280056 35.0637921,55.3280056 L34.7963764,55.3280056 L34.7688483,55.3280056 L34.4736236,55.3280056 C34.4137921,55.3280056 34.3677247,55.3246348 34.3359831,55.3184551 C34.3039607,55.3119944 34.2806461,55.3016011 34.2660393,55.2869944 C34.2514326,55.2723876 34.2399157,55.2499157 34.2320506,55.218736 C34.2239045,55.1878371 34.2185674,55.1431742 34.2171629,55.0850281 L34.2171629,52.1122753 L33.6786798,52.1122753 L33.6786798,55.0850281 C33.6769944,55.1431742 33.6719382,55.1878371 33.6637921,55.218736 C33.6556461,55.2499157 33.6441292,55.2723876 33.6298034,55.2869944 C33.6151966,55.3016011 33.591882,55.3119944 33.5595787,55.3184551 C33.5278371,55.3246348 33.4820506,55.3280056 33.4219382,55.3280056 L33.1323315,55.3280056 L33.1050843,55.3280056 L32.5831742,55.3280056 L32.5831742,54.4864326 C32.5792416,54.3060955 32.5432865,54.1451404 32.4739045,54.0041292 C32.4045225,53.8628371 32.3098596,53.746264 32.1899157,53.6544101 C32.0694101,53.5625562 31.9289607,53.4982303 31.7677247,53.4617135 C31.6064888,53.4257584 31.4328933,53.418736 31.2469382,53.4426124 C31.0542416,53.4701404 30.8632303,53.5173315 30.6747472,53.5847472 C30.486264,53.6521629 30.2960955,53.7442978 30.1050843,53.8605899 L30.3264326,54.3746348 C30.4005899,54.3325 30.4730618,54.2959831 30.5421629,54.2650843 C30.611264,54.2341854 30.6885112,54.2013202 30.7730618,54.1667697 C30.8578933,54.1319382 30.9458146,54.0999157 31.0365449,54.0701404 C31.1275562,54.0398034 31.2107022,54.0164888 31.2854213,54.0001966 C31.3944101,53.9780056 31.4938483,53.9746348 31.5831742,53.9892416 C31.6725,54.0038483 31.7486236,54.0339045 31.8129494,54.0794101 C31.8764326,54.1249157 31.9269944,54.1864326 31.9643539,54.2636798 C32.0019944,54.340927 32.0213764,54.4344663 32.0233427,54.543736 L32.0233427,55.3280056 L29.9137921,55.3280056 L29.889073,55.3280056 L27.8073315,55.3280056 L27.7798034,55.3280056 L25.7005899,55.3280056 L25.6733427,55.3280056 L23.5938483,55.3280056 L23.5666011,55.3280056 L23.0913202,55.3280056 C23.030927,55.3280056 22.9851404,55.3246348 22.9533989,55.3184551 C22.9210955,55.3119944 22.8980618,55.3016011 22.883736,55.2869944 C22.8688483,55.2723876 22.8576124,55.2499157 22.8494663,55.218736 C22.8410393,55.1878371 22.836264,55.1431742 22.8345787,55.0850281 L22.8345787,52.6448596 L23.0202528,52.6448596 L23.0202528,52.1091854 L22.2960955,52.1091854 L22.2960955,55.1749157 C22.3000281,55.3934551 22.3604213,55.5608708 22.4778371,55.6763202 C22.5952528,55.7917697 22.758736,55.8516011 22.9682865,55.8552528 L23.5666011,55.8552528 L23.5938483,55.8552528 L25.6733427,55.8552528 L25.7005899,55.8552528 L27.7798034,55.8552528 L27.8073315,55.8552528 L29.8865449,55.8552528 L29.9137921,55.8552528 Z" id="Fill-10" fill="#585B5C" mask="url(#mask-2)"/>
                <polygon id="Fill-11" fill="#585B5C" mask="url(#mask-2)" points="38.1839888 53.1146067 38.725 53.1146067 38.725 52.5710674 38.1839888 52.5710674"/>
                <polygon id="Fill-12" fill="#585B5C" mask="url(#mask-2)" points="38.9106742 53.1146067 39.4522472 53.1146067 39.4522472 52.5710674 38.9106742 52.5710674"/>
                <path d="M49.2417697,55.3280056 L48.2364326,55.3280056 C48.1670506,55.3280056 48.1142416,55.3237921 48.0774438,55.3156461 C48.0414888,55.3075 48.0150843,55.2951404 47.9985112,55.2788483 C47.9822191,55.2625562 47.9707022,55.235309 47.963118,55.1968258 C47.9560955,55.1583427 47.9521629,55.1038483 47.9521629,55.0327809 L47.9521629,54.5221067 C47.9648034,54.3016011 48.0178933,54.1465449 48.1108708,54.0575 C48.2035674,53.9681742 48.3499157,53.9291292 48.5507584,53.9400843 C48.6271629,53.9471067 48.7075,53.9670506 48.7912079,53.9996348 C48.8746348,54.0330618 48.9516011,54.071264 49.0204213,54.1162079 C49.0898034,54.1608708 49.1440169,54.2041292 49.1830618,54.2459831 C49.2223876,54.2878371 49.2417697,54.3178933 49.2417697,54.3361517 L49.2417697,55.3280056 Z M39.4684551,55.3280056 L38.463118,55.3280056 C38.393736,55.3280056 38.340927,55.3237921 38.3041292,55.3156461 C38.2681742,55.3075 38.2417697,55.2951404 38.2251966,55.2788483 C38.2089045,55.2625562 38.1971067,55.235309 38.1898034,55.1968258 C38.1825,55.1583427 38.1785674,55.1038483 38.1785674,55.0327809 L38.1785674,54.5221067 C38.1914888,54.3016011 38.2442978,54.1465449 38.3372753,54.0575 C38.4302528,53.9681742 38.576882,53.9291292 38.7771629,53.9400843 C38.8538483,53.9471067 38.9339045,53.9670506 39.0176124,53.9996348 C39.1013202,54.0330618 39.1780056,54.071264 39.2471067,54.1162079 C39.3164888,54.1608708 39.3701404,54.2041292 39.4094663,54.2459831 C39.4487921,54.2878371 39.4684551,54.3178933 39.4684551,54.3361517 L39.4684551,55.3280056 Z M49.9577809,53.4260393 L49.2389607,53.4260393 L49.2389607,53.6254775 C49.1282865,53.5327809 48.9673315,53.4653652 48.7580618,53.4237921 C48.5487921,53.3813764 48.3322191,53.3914888 48.1080618,53.4535674 C47.9184551,53.5066573 47.7681742,53.5973876 47.6566573,53.726882 C47.5459831,53.8560955 47.4760393,54.0156461 47.4465449,54.2049719 C47.4378371,54.2614326 47.4305337,54.3282865 47.4246348,54.4058146 C47.4195787,54.4833427 47.4148034,54.5622753 47.4108708,54.6431742 C47.4077809,54.7246348 47.4058146,54.8060955 47.4058146,54.888118 C47.4058146,54.9701404 47.4066573,55.043736 47.4086236,55.1091854 C47.4049719,55.160309 47.3987921,55.1999157 47.3906461,55.2282865 C47.3825,55.2566573 47.371264,55.276882 47.3566573,55.2895225 C47.3417697,55.3021629 47.318736,55.3119944 47.2869944,55.3184551 C47.2549719,55.3246348 47.2108708,55.3280056 47.1544101,55.3280056 L46.8648034,55.3280056 L46.8375562,55.3280056 L44.7583427,55.3280056 L44.7308146,55.3280056 L42.6516011,55.3280056 L42.624073,55.3280056 L40.5448596,55.3280056 L40.5173315,55.3280056 L39.9985112,55.3280056 L39.9985112,53.9532865 L40.1844663,53.9532865 L40.1844663,53.4260393 L39.4656461,53.4260393 L39.4656461,53.6254775 C39.354691,53.5327809 39.1940169,53.4653652 38.9847472,53.4237921 C38.7751966,53.3813764 38.5586236,53.3914888 38.3347472,53.4535674 C38.1451404,53.5066573 37.9948596,53.5973876 37.8833427,53.726882 C37.7726685,53.8560955 37.7027247,54.0156461 37.6726685,54.2049719 C37.6642416,54.2707022 37.6572191,54.3479494 37.6513202,54.4372753 C37.6459831,54.5263202 37.6420506,54.6181742 37.6389607,54.7119944 C37.6367135,54.8055337 37.635309,54.8971067 37.635309,54.9864326 C37.635309,55.0757584 37.6369944,55.1532865 37.6406461,55.218736 C37.6698596,55.6322191 37.9136798,55.8442978 38.3729494,55.8552528 L40.5173315,55.8552528 L40.5448596,55.8552528 L42.624073,55.8552528 L42.6516011,55.8552528 L44.7308146,55.8552528 L44.7583427,55.8552528 L46.8375562,55.8552528 L46.8648034,55.8552528 L47.2774438,55.8552528 C47.4650843,55.8532865 47.6032865,55.8150843 47.6926124,55.7403652 C47.7872753,55.8133989 47.9383989,55.8516011 48.146264,55.8552528 L49.7721067,55.8552528 L49.7721067,53.9532865 L49.9577809,53.9532865 L49.9577809,53.4260393 Z" id="Fill-13" fill="#585B5C" mask="url(#mask-2)"/>
                <path d="M53.1995787,55.2920787 C52.9981742,55.0125843 52.8425562,54.7878652 52.7349719,54.6201685 C52.6228933,54.4454494 52.5630618,54.3395506 52.5560393,54.3030337 C52.5467697,54.2651124 52.5448034,54.232809 52.5492978,54.2064045 C52.5535112,54.18 52.5669944,54.1566854 52.5889045,54.1367416 C52.6470506,54.0766292 52.720927,54.0339326 52.8099719,54.0069663 C52.8995787,53.9805618 52.9886236,53.9670787 53.0776685,53.9670787 C53.1633427,53.9670787 53.2349719,53.9684831 53.2922753,53.971573 C53.3495787,53.974382 53.3970506,53.977191 53.4344101,53.9811236 C53.4720506,53.9847753 53.5023876,53.9892697 53.5259831,53.9946067 C53.5495787,53.9999438 53.5731742,54.0064045 53.5970506,54.0137079 C53.6880618,54.0409551 53.7554775,54.0788764 53.7990169,54.127191 C53.843118,54.1752247 53.8594101,54.2347753 53.8484551,54.3061236 C53.8375,54.382809 53.6203652,54.7125843 53.1995787,55.2920787 M55.5956461,55.6763483 C55.7133427,55.5608989 55.773736,55.3934831 55.7776685,55.1749438 L55.7776685,52.1123034 L55.0537921,52.1123034 L55.0537921,52.6474157 L55.2394663,52.6474157 L55.2394663,55.0850562 C55.2375,55.1432022 55.2321629,55.1878652 55.2240169,55.218764 C55.2158708,55.2499438 55.2046348,55.2724157 55.1900281,55.2867416 C55.1754213,55.3016292 55.1521067,55.3120225 55.1206461,55.3184831 C55.0886236,55.3246629 55.0425562,55.3280337 54.9824438,55.3280337 L54.7147472,55.3280337 L54.6875,55.3280337 L53.8757022,55.3280337 C54.006882,55.1420787 54.1189607,54.9656742 54.2119382,54.7976966 C54.3046348,54.6308427 54.3633427,54.5092135 54.3866573,54.4344944 C54.4119382,54.3491011 54.4257022,54.2690449 54.4276685,54.1954494 C54.4296348,54.1218539 54.4214888,54.0530337 54.4029494,53.9892697 C54.3849719,53.9255056 54.3582865,53.8682022 54.3240169,53.8170787 C54.2894663,53.7659551 54.2518258,53.7196067 54.2119382,53.6777528 C54.0425562,53.5100562 53.7655899,53.4260674 53.3810393,53.4260674 L53.0231742,53.4260674 C52.6389045,53.4260674 52.3619382,53.5100562 52.1925562,53.6777528 C52.1509831,53.7196067 52.1150281,53.7651124 52.084691,53.8142697 C52.0546348,53.863427 52.031882,53.9184831 52.0164326,53.9797191 C52.0007022,54.0406742 51.9925562,54.1075281 51.9917135,54.1805618 C51.9908708,54.2533146 51.9978933,54.3353371 52.0122191,54.4263483 C52.0358146,54.5814045 52.2074438,54.8816854 52.5259831,55.3280337 L51.8015449,55.3280337 L51.7748596,55.3280337 L51.2992978,55.3280337 C51.2391854,55.3280337 51.1925562,55.3246629 51.1610955,55.3184831 C51.1293539,55.3120225 51.1063202,55.3016292 51.0917135,55.2867416 C51.0768258,55.2724157 51.065309,55.2499438 51.0571629,55.218764 C51.0492978,55.1878652 51.0439607,55.1432022 51.0422753,55.0850562 L51.0422753,52.6448876 L51.2276685,52.6448876 L51.2276685,52.1092135 L50.504073,52.1092135 L50.504073,55.1749438 C50.5080056,55.3934831 50.5683989,55.5608989 50.6860955,55.6763483 C50.8035112,55.7917978 50.9669944,55.8516292 51.176264,55.8552809 L51.7748596,55.8552809 L51.8015449,55.8552809 L54.6875,55.8552809 L54.7147472,55.8552809 L55.1051966,55.8552809 C55.3147472,55.8516292 55.4782303,55.7917978 55.5956461,55.6763483" id="Fill-14" fill="#585B5C" mask="url(#mask-2)"/>
                <polygon id="Fill-15" fill="#585B5C" mask="url(#mask-2)" points="56.5067416 55.8552528 57.0339888 55.8552528 57.0339888 52.1091854 56.3238764 52.1091854 56.3238764 52.6395225 56.5067416 52.6395225"/>
                <path d="M59.3538483,54.5220787 C59.3667697,54.301573 59.4192978,54.1465169 59.5119944,54.0574719 C59.6055337,53.9681461 59.7521629,53.9291011 59.9524438,53.9400562 C60.0288483,53.9470787 60.1089045,53.9670225 60.1926124,54.0001685 C60.2766011,54.0330337 60.3532865,54.0715169 60.4223876,54.1161798 C60.4917697,54.1608427 60.5457022,54.2041011 60.5847472,54.246236 C60.6237921,54.287809 60.6440169,54.3178652 60.6440169,54.3361236 L60.6440169,55.3279775 L59.6383989,55.3279775 C59.5692978,55.3279775 59.5162079,55.323764 59.4794101,55.315618 C59.4434551,55.3074719 59.4170506,55.2951124 59.4004775,55.2788202 C59.3841854,55.2625281 59.3721067,55.2352809 59.3650843,55.1967978 C59.3577809,55.1585955 59.3538483,55.1038202 59.3538483,55.0327528 L59.3538483,54.5220787 Z M59.5476685,55.8552247 L61.6928933,55.8552247 L61.7201404,55.8552247 L63.7993539,55.8552247 L63.826882,55.8552247 L65.9060955,55.8552247 L65.9333427,55.8552247 L68.0125562,55.8552247 L68.0400843,55.8552247 L68.638118,55.8552247 C68.8476685,55.851573 69.0111517,55.7920225 69.1285674,55.6762921 C69.2459831,55.5608427 69.3066573,55.3939888 69.310309,55.1748876 L69.310309,53.4262921 L68.5861517,53.4262921 L68.5861517,53.9616854 L68.7718258,53.9616854 L68.7718258,55.085 C68.7701404,55.1431461 68.7650843,55.187809 68.7569382,55.2187079 C68.7487921,55.2498876 68.7372753,55.2723596 68.7229494,55.2869663 C68.7083427,55.301573 68.6850281,55.3122472 68.6527247,55.318427 C68.6209831,55.3246067 68.5751966,55.3279775 68.5150843,55.3279775 L68.0400843,55.3279775 L68.0125562,55.3279775 L65.9333427,55.3279775 L65.9060955,55.3279775 L63.826882,55.3279775 L63.7993539,55.3279775 L61.7201404,55.3279775 L61.6928933,55.3279775 L61.1737921,55.3279775 L61.1737921,53.9535393 L61.3597472,53.9535393 L61.3597472,53.4262921 L60.640927,53.4262921 L60.640927,53.6257303 C60.5299719,53.5330337 60.3692978,53.4653371 60.1600281,53.423764 C59.9504775,53.3813483 59.7339045,53.3917416 59.5100281,53.4535393 C59.3204213,53.5066292 59.1701404,53.5973596 59.0589045,53.7268539 C58.9479494,53.8560674 58.8780056,54.015618 58.8485112,54.2049438 C58.8395225,54.2706742 58.8325,54.3479213 58.826882,54.4372472 C58.821264,54.526573 58.8173315,54.6181461 58.8142416,54.7119663 C58.8117135,54.8055056 58.810309,54.8970787 58.810309,54.9864045 C58.810309,55.0757303 58.8122753,55.1532584 58.815927,55.2187079 C58.8448596,55.632191 59.0889607,55.8442697 59.5476685,55.8552247 L59.5476685,55.8552247 Z" id="Fill-16" fill="#585B5C" mask="url(#mask-2)"/>
                <polygon id="Fill-17" fill="#585B5C" mask="url(#mask-2)" points="60.086236 53.1146067 60.6275281 53.1146067 60.6275281 52.5710674 60.086236 52.5710674"/>
                <polygon id="Fill-18" fill="#585B5C" mask="url(#mask-2)" points="59.3595506 53.1146067 59.9005618 53.1146067 59.9005618 52.5710674 59.3595506 52.5710674"/>
                <polygon id="Fill-19" fill="#585B5C" mask="url(#mask-2)" points="68.5643258 53.1146067 69.1053371 53.1146067 69.1053371 52.5710674 68.5643258 52.5710674"/>
                <path d="M72.2419944,54.5220787 C72.2549157,54.301573 72.3077247,54.1465169 72.4004213,54.0574719 C72.4933989,53.9681461 72.6400281,53.9291011 72.8405899,53.9400562 C72.9167135,53.9470787 72.9970506,53.9670225 73.0807584,54.0001685 C73.1644663,54.0330337 73.2411517,54.0715169 73.3102528,54.1161798 C73.3796348,54.1608427 73.4338483,54.2041011 73.4728933,54.246236 C73.5119382,54.287809 73.5316011,54.3178652 73.5316011,54.3361236 L73.5316011,55.3279775 L72.526264,55.3279775 C72.456882,55.3279775 72.404073,55.323764 72.3675562,55.315618 C72.3307584,55.3074719 72.3049157,55.2951124 72.2883427,55.2788202 C72.2714888,55.2625281 72.2599719,55.2352809 72.2529494,55.1967978 C72.245927,55.1585955 72.2419944,55.1038202 72.2419944,55.0327528 L72.2419944,54.5220787 Z M71.9824438,55.7403371 C72.0773876,55.8133708 72.2282303,55.851573 72.4355337,55.8552247 L74.0619382,55.8552247 L74.0619382,53.9535393 L74.2476124,53.9535393 L74.2476124,53.4262921 L73.529073,53.4262921 L73.529073,53.6257303 C73.418118,53.5330337 73.2574438,53.4653371 73.0478933,53.423764 C72.8386236,53.3813483 72.6220506,53.3917416 72.3978933,53.4535393 C72.2082865,53.5066292 72.0580056,53.5973596 71.9467697,53.7268539 C71.8358146,53.8560674 71.7655899,54.015618 71.7363764,54.2049438 C71.7276685,54.2614045 71.7203652,54.3285393 71.7147472,54.4057865 C71.7094101,54.4833146 71.7046348,54.562809 71.7009831,54.643427 C71.6976124,54.7246067 71.6956461,54.8060674 71.6956461,54.8880899 C71.6956461,54.9701124 71.6964888,55.0437079 71.6978933,55.1091573 C71.6948034,55.1602809 71.6886236,55.1998876 71.6804775,55.2282584 C71.6723315,55.2566292 71.6610955,55.2771348 71.6462079,55.2894944 C71.6316011,55.3021348 71.6085674,55.3122472 71.5768258,55.318427 C71.5448034,55.3246067 71.5004213,55.3279775 71.4442416,55.3279775 L71.1546348,55.3279775 L71.1273876,55.3279775 L70.6521067,55.3279775 C70.5917135,55.3279775 70.5456461,55.3246067 70.5139045,55.318427 C70.481882,55.3122472 70.4588483,55.301573 70.4445225,55.2869663 C70.4296348,55.2723596 70.418118,55.2498876 70.4099719,55.2187079 C70.4015449,55.187809 70.3967697,55.1431461 70.3950843,55.085 L70.3950843,52.6448315 L70.5807584,52.6448315 L70.5807584,52.1091573 L69.856882,52.1091573 L69.856882,55.1748876 C69.8602528,55.3939888 69.920927,55.5608427 70.0383427,55.6762921 C70.1557584,55.7920225 70.3195225,55.851573 70.5285112,55.8552247 L71.1273876,55.8552247 L71.1546348,55.8552247 L71.5672753,55.8552247 C71.7549157,55.8532584 71.893118,55.8153371 71.9824438,55.7403371 L71.9824438,55.7403371 Z" id="Fill-20" fill="#585B5C" mask="url(#mask-2)"/>
                <polygon id="Fill-21" fill="#585B5C" mask="url(#mask-2)" points="75.5318539 55.2950843 75.5318539 52.8608146 74.8211798 52.8608146 74.8211798 53.3908708 75.0043258 53.3908708 75.0043258 55.2950843"/>
                <path d="M75.7910955,52.2732303 L75.3784551,52.2732303 C75.3290169,52.2692978 75.2882865,52.2524438 75.2557022,52.221264 C75.223118,52.1903652 75.2045787,52.1476685 75.2006461,52.0926124 L75.2006461,52.0440169 C75.2028933,51.9746348 75.2214326,51.9229494 75.2557022,51.8895225 C75.2902528,51.8558146 75.3388483,51.8389607 75.4003652,51.8389607 C75.4113202,51.8389607 75.4250843,51.8395225 75.4416573,51.8414888 C75.4447472,51.8417697 75.4450281,51.8417697 75.4464326,51.8417697 L75.4464326,51.9507584 L75.7638483,51.9507584 L75.7638483,51.5875562 C75.6798596,51.5639607 75.6121629,51.5468258 75.5604775,51.5369944 C75.5085112,51.5271629 75.4571067,51.5218258 75.406264,51.5218258 C75.3329494,51.5218258 75.264691,51.5333427 75.2006461,51.5560955 C75.1374438,51.5788483 75.0818258,51.6117135 75.0346348,51.6544101 C74.9871629,51.6973876 74.9500843,51.7499157 74.9239607,51.8114326 C74.8972753,51.8735112 74.884073,51.9417697 74.884073,52.0164888 L74.884073,52.0926124 C74.884073,52.2058146 74.8866011,52.2662079 74.8925,52.2732303 L74.7939045,52.2732303 L74.7939045,52.5766011 L75.7910955,52.5766011 L75.7910955,52.2732303 Z" id="Fill-22" fill="#585B5C" mask="url(#mask-2)"/>
                <path d="M76.533118,55.6764045 C76.6505337,55.5609551 76.7112079,55.3935393 76.7145787,55.175 L76.7145787,52.1123596 L75.9907022,52.1123596 L75.9907022,52.6474719 L76.1760955,52.6474719 L76.1760955,55.0853933 C76.174691,55.1435393 76.1696348,55.1879213 76.1614888,55.2188202 C76.1530618,55.2497191 76.1415449,55.2727528 76.1272191,55.2867978 C76.1126124,55.3016854 76.0892978,55.3120787 76.0578371,55.3188202 C76.0255337,55.3247191 75.9797472,55.3280899 75.9193539,55.3280899 L74.794073,55.3280899 L74.794073,55.8553371 L76.0426685,55.8553371 C76.2519382,55.8516854 76.4154213,55.7918539 76.533118,55.6764045" id="Fill-23" fill="#585B5C" mask="url(#mask-2)"/>
                <polygon id="Fill-24" fill="#585B5C" mask="url(#mask-2)" points="77.4441011 55.8552528 77.9713483 55.8552528 77.9713483 52.1091854 77.261236 52.1091854 77.261236 52.6395225 77.4441011 52.6395225"/>
                <polygon id="Fill-25" fill="#585B5C" mask="url(#mask-2)" points="2.74241573 60.2775281 3.28342697 60.2775281 3.28342697 59.7339888 2.74241573 59.7339888"/>
                <path d="M4.13033708,60.6766011 L4.31629213,60.6766011 L4.31629213,61.7996348 C4.31432584,61.8577809 4.30983146,61.9024438 4.30252809,61.9336236 C4.29522472,61.9645225 4.28370787,61.9872753 4.26853933,62.001882 C4.25280899,62.0164888 4.22921348,62.026882 4.19719101,62.0333427 C4.16544944,62.0398034 4.11938202,62.0426124 4.05955056,62.0426124 L1.46657303,62.0426124 C1.22050562,62.0372753 1.04241573,61.9681742 0.932022472,61.8350281 C0.822191011,61.701882 0.779494382,61.5119944 0.805337079,61.2639607 C0.821629213,61.1091854 0.855337079,60.9692978 0.906179775,60.8448596 C0.957303371,60.7198596 1.03932584,60.5847472 1.15224719,60.4389607 L0.698595506,60.1192978 C0.58005618,60.2723876 0.491292135,60.4148034 0.432022472,60.5468258 C0.373033708,60.6788483 0.328932584,60.8215449 0.299719101,60.9743539 C0.279494382,61.0819382 0.268820225,61.1906461 0.266853933,61.3010393 C0.265168539,61.4111517 0.271348315,61.5201404 0.286235955,61.6274438 C0.307865169,61.7709831 0.348314607,61.9013202 0.406179775,62.0181742 C0.464606742,62.1347472 0.539606742,62.2336236 0.631741573,62.3148034 C0.723876404,62.3957022 0.830617978,62.4580618 0.952808989,62.5016011 C1.0747191,62.5454213 1.20786517,62.5678933 1.35168539,62.5698596 L4.18230337,62.5698596 C4.39353933,62.5667697 4.55758427,62.5069382 4.6741573,62.3912079 C4.79073034,62.2754775 4.8505618,62.1086236 4.85449438,61.8895225 L4.85449438,60.1412079 L4.13033708,60.1412079 L4.13033708,60.6766011 Z" id="Fill-26" fill="#585B5C" mask="url(#mask-2)"/>
                <polygon id="Fill-27" fill="#585B5C" mask="url(#mask-2)" points="2.01573034 60.2775281 2.55674157 60.2775281 2.55674157 59.7339888 2.01573034 59.7339888"/>
                <polygon id="Fill-28" fill="#585B5C" mask="url(#mask-2)" points="6.11117978 62.5699438 6.11117978 58.8238764 5.40078652 58.8238764 5.40078652 59.3542135 5.58393258 59.3542135 5.58393258 62.5699438"/>
                <path d="M6.76390449,60.6711236 L6.94985955,60.6711236 L6.94985955,62.7149438 C6.94985955,63.2084831 6.70014045,63.4278652 6.20154494,63.3733708 C6.15407303,63.3660674 6.10547753,63.3576404 6.05632022,63.3486517 C6.00716292,63.339382 5.93525281,63.3177528 5.84058989,63.2832022 C5.82064607,63.408764 5.80603933,63.5008989 5.79676966,63.5590449 C5.7877809,63.6174719 5.77682584,63.7020225 5.76390449,63.8138202 C5.87710674,63.8604494 5.97991573,63.8902247 6.07289326,63.9023034 C6.16558989,63.9138202 6.25491573,63.9197191 6.34087079,63.9197191 C6.51727528,63.9197191 6.67654494,63.8958427 6.81867978,63.8489326 C6.96081461,63.8014607 7.08188202,63.7295506 7.18216292,63.6329213 C7.28216292,63.5362921 7.35884831,63.4169101 7.4116573,63.2750562 C7.46446629,63.1329213 7.49087079,62.97 7.49087079,62.7857303 L7.49087079,60.1410674 L6.76390449,60.1410674 L6.76390449,60.6711236 Z" id="Fill-29" fill="#585B5C" mask="url(#mask-2)"/>
                <polygon id="Fill-30" fill="#585B5C" mask="url(#mask-2)" points="19.7662921 59.8294944 20.3073034 59.8294944 20.3073034 59.2853933 19.7662921 59.2853933"/>
                <polygon id="Fill-31" fill="#585B5C" mask="url(#mask-2)" points="19.0390449 59.8300562 19.5803371 59.8300562 19.5803371 59.2859551 19.0390449 59.2859551"/>
                <path d="M22.7157584,62.0067697 C22.5143539,61.7275562 22.358736,61.5025562 22.2511517,61.3351404 C22.139073,61.1601404 22.0795225,61.0545225 22.0725,61.0180056 C22.0632303,60.9800843 22.0609831,60.9475 22.0660393,60.9213764 C22.0699719,60.894691 22.0831742,60.8713764 22.1050843,60.8514326 C22.1632303,60.7913202 22.2371067,60.7486236 22.3264326,60.7219382 C22.4157584,60.6952528 22.5048034,60.6820506 22.5941292,60.6820506 C22.6798034,60.6820506 22.7511517,60.6834551 22.8084551,60.686264 C22.8660393,60.689073 22.9132303,60.6921629 22.9505899,60.6958146 C22.9882303,60.6997472 23.0185674,60.7039607 23.0421629,60.7092978 C23.0660393,60.7146348 23.0893539,60.7213764 23.1132303,60.7286798 C23.2042416,60.755927 23.2716573,60.7938483 23.3154775,60.841882 C23.3592978,60.8901966 23.3758708,60.9497472 23.3646348,61.0208146 C23.3539607,61.0977809 23.1365449,61.4272753 22.7157584,62.0067697 L22.7157584,62.0067697 Z M20.239073,62.0427247 L19.211264,62.0427247 C19.1477809,62.0410393 19.0986236,62.0359831 19.0637921,62.0275562 C19.0292416,62.019691 19.0045225,62.0076124 18.9899157,61.9921629 C18.9755899,61.9767135 18.9651966,61.9500281 18.9590169,61.9115449 C18.9525562,61.8730618 18.9491854,61.8188483 18.9491854,61.7475 L18.9491854,61.2368258 C18.9621067,61.0166011 19.0146348,60.8615449 19.1076124,60.7722191 C19.2005899,60.6831742 19.3472191,60.6435674 19.5475,60.6548034 C19.6241854,60.6621067 19.7042416,60.6820506 19.7879494,60.7146348 C19.8716573,60.7477809 19.9480618,60.786264 20.0180056,60.830927 C20.0871067,60.8758708 20.1407584,60.9188483 20.1803652,60.9607022 C20.2194101,61.0028371 20.239073,61.0328933 20.239073,61.0508708 L20.239073,62.0427247 Z M24.5699719,59.3623876 L24.7556461,59.3623876 L24.7556461,61.7997472 C24.7536798,61.8578933 24.7486236,61.9025562 24.7404775,61.9334551 C24.7323315,61.9646348 24.7208146,61.9873876 24.7064888,62.0017135 C24.6916011,62.0163202 24.6685674,62.0267135 24.6368258,62.0334551 C24.6048034,62.0396348 24.5590169,62.0427247 24.4986236,62.0427247 L24.2314888,62.0427247 L24.2036798,62.0427247 L23.391882,62.0427247 C23.5230618,61.8567697 23.6351404,61.6803652 23.728118,61.5126685 C23.8210955,61.3455337 23.8795225,61.2241854 23.9033989,61.1491854 C23.9283989,61.0637921 23.9421629,60.983736 23.9438483,60.9101404 C23.9458146,60.8365449 23.9376685,60.7677247 23.9191292,60.7039607 C23.9011517,60.6404775 23.8747472,60.5828933 23.8401966,60.5317697 C23.8056461,60.4806461 23.7680056,60.4342978 23.728118,60.3924438 C23.558736,60.2247472 23.2820506,60.1410393 22.8972191,60.1410393 L22.5396348,60.1410393 C22.1553652,60.1410393 21.8783989,60.2247472 21.7090169,60.3924438 C21.6671629,60.4342978 21.6312079,60.4798034 21.6008708,60.5289607 C21.5708146,60.5783989 21.5480618,60.6331742 21.5326124,60.6944101 C21.5171629,60.7553652 21.5090169,60.8222191 21.5081742,60.8952528 C21.5070506,60.9680056 21.514073,61.0500281 21.5283989,61.1410393 C21.5522753,61.2960955 21.7236236,61.5963764 22.0424438,62.0427247 L21.3180056,62.0427247 L21.2910393,62.0427247 L20.7685674,62.0427247 L20.7685674,60.6682865 L20.9545225,60.6682865 L20.9545225,60.1410393 L20.2359831,60.1410393 L20.2359831,60.3404775 C20.1247472,60.2475 19.9646348,60.1800843 19.7550843,60.1385112 C19.5460955,60.0963764 19.3289607,60.1062079 19.1050843,60.1682865 C18.9154775,60.2213764 18.7654775,60.3123876 18.6542416,60.4416011 C18.5432865,60.5710955 18.4730618,60.7303652 18.4438483,60.9199719 C18.4345787,60.9854213 18.4272753,61.0626685 18.4219382,61.1519944 C18.4163202,61.2410393 18.4123876,61.3328933 18.4098596,61.4267135 C18.4067697,61.5205337 18.4053652,61.6118258 18.4053652,61.7011517 C18.4053652,61.7901966 18.4073315,61.866882 18.4109831,61.9306461 L18.4137921,62.0427247 L18.2146348,62.0427247 L18.1871067,62.0427247 L16.1078933,62.0427247 L16.0806461,62.0427247 L14.0017135,62.0427247 L13.9739045,62.0427247 L11.8949719,62.0427247 L11.8674438,62.0427247 L9.88205056,62.0427247 L9.85452247,62.0427247 L9.37896067,62.0427247 C9.31884831,62.0427247 9.2727809,62.0396348 9.24103933,62.0334551 C9.20901685,62.0267135 9.18598315,62.0163202 9.1713764,62.0017135 C9.15648876,61.9873876 9.14525281,61.9646348 9.13710674,61.9334551 C9.12896067,61.9025562 9.12390449,61.8578933 9.1222191,61.7997472 L9.1222191,59.3595787 L9.30817416,59.3595787 L9.30817416,58.8239045 L8.58373596,58.8239045 L8.58373596,61.8896348 C8.58766854,62.1084551 8.6483427,62.2755899 8.76575843,62.3910393 C8.88317416,62.5067697 9.0466573,62.5666011 9.25620787,62.5699719 L9.85452247,62.5699719 L9.88205056,62.5699719 L11.8674438,62.5699719 L11.8949719,62.5699719 L13.9739045,62.5699719 L14.0017135,62.5699719 L16.0806461,62.5699719 L16.1078933,62.5699719 L18.1871067,62.5699719 L18.2146348,62.5699719 L21.2910393,62.5699719 L21.3180056,62.5699719 L24.2036798,62.5699719 L24.2314888,62.5699719 L24.6216573,62.5699719 C24.8312079,62.5666011 24.994691,62.5067697 25.1121067,62.3910393 C25.2295225,62.2755899 25.2901966,62.1084551 25.2938483,61.8896348 L25.2938483,58.8269944 L24.5699719,58.8269944 L24.5699719,59.3623876 Z" id="Fill-32" fill="#585B5C" mask="url(#mask-2)"/>
                <polygon id="Fill-33" fill="#585B5C" mask="url(#mask-2)" points="25.8401966 59.3541292 26.0230618 59.3541292 26.0230618 62.5698596 26.550309 62.5698596 26.550309 58.8237921 25.8401966 58.8237921"/>
                <path d="M30.9959551,60.6985674 L30.9959551,60.2255337 C30.8923034,60.1909831 30.821236,60.1701966 30.7827528,60.1631742 C30.7445506,60.1555899 30.7136517,60.1502528 30.6900562,60.1466011 C30.5844382,60.1336798 30.4861236,60.1373315 30.3948315,60.1575562 C30.3035393,60.1777809 30.2240449,60.213736 30.1560674,60.2668258 C30.087809,60.3196348 30.0333146,60.3862079 29.9931461,60.466264 C29.9532584,60.5463202 29.9324719,60.6384551 29.9305056,60.7421067 L29.9305056,60.9333989 L29.8347191,60.9333989 L29.8347191,61.3842416 L31.0041011,61.3842416 L31.0041011,60.9333989 L30.3866854,60.9333989 L30.3866854,60.7724438 C30.3866854,60.7213202 30.3920225,60.6848034 30.4018539,60.6628933 C30.4116854,60.6409831 30.4246067,60.6258146 30.4400562,60.6165449 C30.4555056,60.6075562 30.4805056,60.6019382 30.5150562,60.5999719 C30.5496067,60.5982865 30.5723596,60.5982865 30.5833146,60.5999719 L30.5833146,60.6985674 L30.9959551,60.6985674 Z" id="Fill-34" fill="#585B5C" mask="url(#mask-2)"/>
                <path d="M45.3376966,62.0426966 L44.3323596,62.0426966 C44.2629775,62.0426966 44.2101685,62.0384831 44.1733708,62.0303371 C44.1374157,62.022191 44.1107303,62.0101124 44.0944382,61.9935393 C44.0781461,61.9772472 44.0663483,61.95 44.058764,61.9115169 C44.0517416,61.8730337 44.0480899,61.8188202 44.0480899,61.7474719 L44.0480899,61.2367978 C44.0607303,61.016573 44.1138202,60.8615169 44.2067978,60.7724719 C44.2994944,60.6831461 44.4458427,60.6438202 44.6464045,60.6547753 C44.7230899,60.6620787 44.8031461,60.6820225 44.8871348,60.7143258 C44.97,60.7477528 45.0472472,60.786236 45.1163483,60.8311798 C45.1854494,60.8758427 45.239382,60.9188202 45.2789888,60.9606742 C45.3180337,61.002809 45.3376966,61.0328652 45.3376966,61.0508427 L45.3376966,62.0426966 Z M47.2747753,60.6766854 L47.4604494,60.6766854 L47.4604494,61.7997191 C47.458764,61.8578652 47.453427,61.9025281 47.4455618,61.933427 C47.4374157,61.9646067 47.4258989,61.9873596 47.4112921,62.0016854 C47.3966854,62.0162921 47.3733708,62.0266854 47.3416292,62.033427 C47.3098876,62.0396067 47.2632584,62.0426966 47.2037079,62.0426966 L46.406236,62.0426966 L46.378427,62.0426966 L45.8677528,62.0426966 L45.8677528,60.6682584 L46.053427,60.6682584 L46.053427,60.1410112 L45.3348876,60.1410112 L45.3348876,60.3404494 C45.2239326,60.2474719 45.0632584,60.1800562 44.8539888,60.1384831 C44.6444382,60.0963483 44.4278652,60.1061798 44.2039888,60.1682584 C44.0141011,60.2213483 43.8641011,60.3123596 43.7525843,60.441573 C43.6419101,60.5710674 43.5716854,60.7303371 43.5424719,60.9199438 C43.5334831,60.9761236 43.5261798,61.0429775 43.5205618,61.1207865 C43.5155056,61.1980337 43.5104494,61.2772472 43.5067978,61.3578652 C43.503427,61.4396067 43.5017416,61.5210674 43.5017416,61.6030899 C43.5017416,61.6851124 43.5023034,61.7587079 43.5042697,61.8241573 C43.5008989,61.875 43.4947191,61.9148876 43.4862921,61.9432584 C43.4781461,61.9713483 43.4669101,61.991573 43.4523034,62.0044944 C43.4376966,62.0171348 43.414382,62.0266854 43.3829213,62.033427 C43.3508989,62.0396067 43.3067978,62.0426966 43.2500562,62.0426966 L42.9607303,62.0426966 L42.9329213,62.0426966 L40.8539888,62.0426966 L40.8261798,62.0426966 L38.7475281,62.0426966 L38.72,62.0426966 L36.6410674,62.0426966 L36.6132584,62.0426966 L34.5340449,62.0426966 L34.5070787,62.0426966 L34.211573,62.0426966 C34.1517416,62.0426966 34.1056742,62.0396067 34.0736517,62.033427 C34.0416292,62.0266854 34.0185955,62.0162921 34.0037079,62.0016854 C33.989382,61.9873596 33.9781461,61.9646067 33.9697191,61.933427 C33.961573,61.9025281 33.956236,61.8578652 33.9551124,61.7997191 L33.9551124,58.8269663 L33.4169101,58.8269663 L33.4169101,61.7997191 C33.4149438,61.8578652 33.4096067,61.9025281 33.4017416,61.933427 C33.3935955,61.9646067 33.3817978,61.9873596 33.3674719,62.0016854 C33.3528652,62.0162921 33.3295506,62.0266854 33.297809,62.033427 C33.2655056,62.0396067 33.2197191,62.0426966 33.1596067,62.0426966 L32.8702809,62.0426966 L32.8430337,62.0426966 L32.5747753,62.0426966 C32.5166292,62.0426966 32.4714045,62.0396067 32.4385393,62.033427 C32.4059551,62.0266854 32.3820787,62.0162921 32.3674719,62.0016854 C32.3525843,61.9873596 32.3410674,61.9646067 32.3334831,61.933427 C32.3253371,61.9025281 32.32,61.8578652 32.3183146,61.7997191 L32.3183146,58.8238764 L31.5941573,58.8238764 L31.5941573,59.3595506 L31.7801124,59.3595506 L31.7801124,61.7997191 C31.778427,61.8578652 31.7736517,61.9025281 31.7666292,61.933427 C31.7590449,61.9646067 31.747809,61.9873596 31.7320787,62.0016854 C31.7169101,62.0162921 31.6933146,62.0266854 31.6612921,62.033427 C31.6292697,62.0396067 31.5834831,62.0426966 31.5233708,62.0426966 L29.5289888,62.0426966 C29.2829213,62.0370787 29.1048315,61.9679775 28.9944382,61.8351124 C28.8846067,61.7019663 28.8419101,61.5117978 28.8674719,61.2640449 C28.8840449,61.1092697 28.9180337,60.9691011 28.9697191,60.8429775 C29.0219663,60.7174157 29.1042697,60.5808989 29.217191,60.433427 L28.7691573,60.113764 C28.650618,60.2668539 28.5610112,60.4101124 28.5003371,60.5426966 C28.4391011,60.6758427 28.3930337,60.8196629 28.3618539,60.9741573 C28.3419101,61.0820225 28.331236,61.1907303 28.3292697,61.3008427 C28.3273034,61.411236 28.333764,61.5202247 28.3486517,61.6272472 C28.3702809,61.7713483 28.4104494,61.9014045 28.4685955,62.0182584 C28.5267416,62.1348315 28.6020225,62.2337079 28.6941573,62.3148876 C28.7860112,62.3957865 28.8930337,62.4581461 29.0152247,62.5016854 C29.1371348,62.5455056 29.2702809,62.5679775 29.4141011,62.5699438 L31.6461236,62.5699438 C31.8320787,62.5679775 31.9657865,62.5325843 32.0475281,62.4634831 C32.1351685,62.5325843 32.27,62.5679775 32.4523034,62.5699438 L32.8430337,62.5699438 L32.8702809,62.5699438 L33.2829213,62.5699438 C33.4685955,62.5679775 33.6025843,62.5325843 33.6843258,62.4634831 C33.7719663,62.5325843 33.9067978,62.5679775 34.0888202,62.5699438 L34.5070787,62.5699438 L34.5340449,62.5699438 L36.6132584,62.5699438 L36.6410674,62.5699438 L38.72,62.5699438 L38.7475281,62.5699438 L40.8261798,62.5699438 L40.8539888,62.5699438 L42.9329213,62.5699438 L42.9607303,62.5699438 L43.3733708,62.5699438 C43.5610112,62.5679775 43.6992135,62.5300562 43.7885393,62.4553371 C43.8832022,62.5283708 44.0343258,62.566573 44.242191,62.5699438 L46.378427,62.5699438 L46.406236,62.5699438 L47.3264607,62.5699438 C47.5360112,62.566573 47.6994944,62.5067416 47.8169101,62.3910112 C47.9343258,62.2755618 47.995,62.108427 47.9989326,61.8896067 L47.9989326,60.1410112 L47.2747753,60.1410112 L47.2747753,60.6766854 Z" id="Fill-35" fill="#585B5C" mask="url(#mask-2)"/>
                <polygon id="Fill-36" fill="#585B5C" mask="url(#mask-2)" points="46.7390449 59.8300562 47.2803371 59.8300562 47.2803371 59.2859551 46.7390449 59.2859551"/>
                <polygon id="Fill-37" fill="#585B5C" mask="url(#mask-2)" points="47.4660112 59.8294944 48.0073034 59.8294944 48.0073034 59.2853933 47.4660112 59.2853933"/>
                <path d="M53.6409551,60.6766011 L53.8269101,60.6766011 L53.8269101,61.7996348 C53.8249438,61.8577809 53.8204494,61.9024438 53.8131461,61.9336236 C53.8058427,61.9645225 53.7943258,61.9872753 53.7788764,62.001882 C53.763427,62.0164888 53.7401124,62.026882 53.707809,62.0333427 C53.6760674,62.0398034 53.6302809,62.0426124 53.5701685,62.0426124 L50.977191,62.0426124 C50.7314045,62.0372753 50.5533146,61.9681742 50.4426404,61.8350281 C50.332809,61.701882 50.2901124,61.5119944 50.3159551,61.2639607 C50.3322472,61.1091854 50.3659551,60.9692978 50.4167978,60.8448596 C50.4679213,60.7198596 50.5499438,60.5847472 50.6625843,60.4389607 L50.2092135,60.1192978 C50.0906742,60.2723876 50.002191,60.4148034 49.9429213,60.5468258 C49.8836517,60.6788483 49.8395506,60.8215449 49.8103371,60.9743539 C49.7901124,61.0819382 49.7794382,61.1906461 49.7774719,61.3010393 C49.7755056,61.4111517 49.7822472,61.5201404 49.7962921,61.6274438 C49.8184831,61.7709831 49.8586517,61.9013202 49.9167978,62.0181742 C49.9749438,62.1347472 50.0502247,62.2336236 50.1423596,62.3148034 C50.2342135,62.3957022 50.341236,62.4580618 50.4631461,62.5016011 C50.5853371,62.5454213 50.7184831,62.5678933 50.8623034,62.5698596 L53.6929213,62.5698596 C53.9041573,62.5667697 54.0682022,62.5069382 54.1850562,62.3912079 C54.3013483,62.2754775 54.3608989,62.1086236 54.3648315,61.8895225 L54.3648315,60.1412079 L53.6409551,60.1412079 L53.6409551,60.6766011 Z" id="Fill-38" fill="#585B5C" mask="url(#mask-2)"/>
                <polygon id="Fill-39" fill="#585B5C" mask="url(#mask-2)" points="51.5261236 60.2775281 52.0671348 60.2775281 52.0671348 59.7339888 51.5261236 59.7339888"/>
                <polygon id="Fill-40" fill="#585B5C" mask="url(#mask-2)" points="52.252809 60.2775281 52.7941011 60.2775281 52.7941011 59.7339888 52.252809 59.7339888"/>
                <polygon id="Fill-41" fill="#585B5C" mask="url(#mask-2)" points="63.0539326 63.3758427 63.5949438 63.3758427 63.5949438 62.8320225 63.0539326 62.8320225"/>
                <path d="M69.030309,61.6054494 C69.0291854,61.6312921 69.0286236,61.6638764 69.0277809,61.7040449 C69.0266573,61.7442135 69.0252528,61.7981461 69.0235674,61.865 C69.0235674,61.9253933 69.010927,61.9697753 68.9856461,61.9989888 C68.9598034,62.0282022 68.9187921,62.042809 68.8623315,62.042809 L66.7721629,62.042809 L66.7721629,61.5017978 C66.7721629,61.5147191 66.7960393,61.4975843 66.8432303,61.451236 C66.8907022,61.4046067 66.960927,61.3444944 67.0550281,61.2708989 C67.1488483,61.1970225 67.258118,61.1211798 67.3845225,61.0425281 C67.5100843,60.9644382 67.6415449,60.8953371 67.7789045,60.8349438 C67.9165449,60.7748315 68.0558708,60.7312921 68.1971629,60.7040449 C68.3381742,60.6765169 68.4735674,60.6756742 68.6027809,60.7009551 C68.741264,60.7321348 68.8435112,60.7877528 68.9100843,60.867809 C68.9769382,60.9478652 69.0142978,61.0624719 69.0235674,61.212191 C69.0252528,61.2779213 69.0266573,61.3304494 69.0277809,61.370618 C69.0286236,61.4107865 69.0291854,61.4433708 69.030309,61.4692135 C69.0311517,61.4942135 69.0317135,61.5172472 69.0317135,61.537191 C69.0317135,61.5574157 69.0311517,61.5801685 69.030309,61.6054494 M69.5657022,61.3296067 C69.5648596,61.2857865 69.5634551,61.2284831 69.5620506,61.1574157 C69.558118,61.0377528 69.5373315,60.923427 69.4988483,60.8158427 C69.4606461,60.7085393 69.4086798,60.6113483 69.3418258,60.5248315 C69.2752528,60.4385955 69.1957584,60.3658427 69.1030618,60.306573 C69.0098034,60.2473034 68.9069944,60.2057303 68.7937921,60.1821348 C68.6701966,60.1599438 68.5446348,60.1470225 68.4168258,60.1425281 C68.2892978,60.1377528 68.1657022,60.145618 68.0451966,60.1655618 C67.9926685,60.1765169 67.9308708,60.192809 67.8595225,60.2135955 C67.7884551,60.234382 67.7120506,60.2605056 67.6300281,60.2914045 C67.5482865,60.3223034 67.4631742,60.3579775 67.3744101,60.3978652 C67.2864888,60.4380337 67.1985674,60.4826966 67.1123315,60.5318539 C67.0258146,60.5812921 66.9429494,60.6341011 66.863736,60.6916854 C66.7845225,60.7489888 66.7539045,60.7686517 66.7721629,60.7503933 L66.7721629,58.8214607 L66.0482865,58.8214607 L66.0482865,59.3540449 L66.2336798,59.3540449 L66.2336798,62.042809 L65.8567135,62.042809 L65.8294663,62.042809 L65.5345225,62.042809 C65.4744101,62.042809 65.4283427,62.0397191 65.3960393,62.0332584 C65.3645787,62.0267978 65.341264,62.0164045 65.3263764,62.0017978 C65.3123315,61.987191 65.3008146,61.9644382 65.2923876,61.9335393 C65.2845225,61.9026404 65.2791854,61.8576966 65.2780618,61.7995506 L65.2780618,58.8267978 L64.7395787,58.8267978 L64.7395787,61.7995506 C64.7376124,61.8576966 64.7325562,61.9026404 64.7244101,61.9335393 C64.716264,61.9644382 64.7050281,61.987191 64.6904213,62.0017978 C64.6758146,62.0164045 64.6525,62.0267978 64.6204775,62.0332584 C64.5884551,62.0397191 64.5423876,62.042809 64.4828371,62.042809 L64.1929494,62.042809 L64.1657022,62.042809 L63.8704775,62.042809 C63.8103652,62.042809 63.7642978,62.0397191 63.7328371,62.0332584 C63.7002528,62.0267978 63.6772191,62.0164045 63.6628933,62.0017978 C63.6482865,61.987191 63.6370506,61.9644382 63.6289045,61.9335393 C63.6204775,61.9026404 63.6157022,61.8576966 63.6140169,61.7995506 L63.6140169,60.381573 L63.0758146,60.381573 L63.0758146,61.7995506 C63.0738483,61.8576966 63.0687921,61.9026404 63.0606461,61.9335393 C63.0522191,61.9644382 63.0409831,61.987191 63.0263764,62.0017978 C63.0117697,62.0164045 62.9884551,62.0267978 62.9567135,62.0332584 C62.9249719,62.0397191 62.8789045,62.042809 62.8187921,62.042809 L62.5289045,62.042809 L62.5019382,62.042809 L60.4221629,62.042809 L60.3951966,62.042809 L58.3159831,62.042809 L58.288736,62.042809 L56.2092416,62.042809 L56.1819944,62.042809 L55.7067135,62.042809 C55.6466011,62.042809 55.6002528,62.0397191 55.5685112,62.0332584 C55.5364888,62.0267978 55.5134551,62.0164045 55.4988483,62.0017978 C55.4839607,61.987191 55.4727247,61.9644382 55.4645787,61.9335393 C55.4564326,61.9026404 55.4513764,61.8576966 55.449691,61.7995506 L55.449691,59.3596629 L55.6353652,59.3596629 L55.6353652,58.8239888 L54.9114888,58.8239888 L54.9114888,61.8897191 C54.9151404,62.1085393 54.9758146,62.2756742 55.0932303,62.3911236 C55.2106461,62.5068539 55.3741292,62.5666854 55.5836798,62.5700562 L56.1819944,62.5700562 L56.2092416,62.5700562 L58.288736,62.5700562 L58.3159831,62.5700562 L60.3951966,62.5700562 L60.4221629,62.5700562 L62.5019382,62.5700562 L62.5289045,62.5700562 L62.9418258,62.5700562 C63.1275,62.5680899 63.2612079,62.5326966 63.3432303,62.4635955 C63.4308708,62.5326966 63.5654213,62.5680899 63.7477247,62.5700562 L64.1657022,62.5700562 L64.1929494,62.5700562 L64.6055899,62.5700562 C64.791264,62.5680899 64.9252528,62.5326966 65.0072753,62.4635955 C65.0946348,62.5326966 65.2294663,62.5680899 65.4114888,62.5700562 L65.8294663,62.5700562 L65.8567135,62.5700562 L68.8895787,62.5700562 C69.1120506,62.5607865 69.2791854,62.5020787 69.3909831,62.3939326 C69.5033427,62.2855056 69.5600843,62.1192135 69.5620506,61.8950562 C69.5634551,61.8276404 69.5648596,61.7723034 69.5657022,61.7284831 C69.5668258,61.6849438 69.5676685,61.6470225 69.5687921,61.615 C69.5696348,61.5832584 69.5699157,61.5548876 69.5699157,61.5301685 C69.5699157,61.5060112 69.5696348,61.4773596 69.5687921,61.4444944 C69.5676685,61.4119101 69.5668258,61.373427 69.5657022,61.3296067" id="Fill-42" fill="#585B5C" mask="url(#mask-2)"/>
                <polygon id="Fill-43" fill="#585B5C" mask="url(#mask-2)" points="73.1522472 64.4741573 73.6932584 64.4741573 73.6932584 63.9303371 73.1522472 63.9303371"/>
                <polygon id="Fill-44" fill="#585B5C" mask="url(#mask-2)" points="72.4255618 64.4741573 72.966573 64.4741573 72.966573 63.9303371 72.4255618 63.9303371"/>
                <path d="M77.2339888,61.3678933 L76.2558989,61.3678933 C76.1865169,61.3662079 76.1325843,61.3611517 76.094382,61.3527247 C76.0564607,61.3445787 76.0289326,61.3322191 76.0126404,61.3156461 C75.9963483,61.2996348 75.9845506,61.2721067 75.9769663,61.2336236 C75.9696629,61.1959831 75.9671348,61.1400843 75.9688202,61.0673315 L75.9716292,60.815927 C75.9755618,60.5954213 76.025,60.4414888 76.1205056,60.3544101 C76.2162921,60.2667697 76.3660112,60.2294101 76.5702247,60.2420506 C76.7283708,60.2530056 76.8662921,60.2985112 76.9837079,60.3788483 C77.1014045,60.4591854 77.1848315,60.5628371 77.2339888,60.6903652 L77.2339888,61.3678933 Z M77.2339888,59.7204213 L77.2339888,59.9251966 L77.2311798,59.9223876 C77.0564607,59.8004775 76.8769663,59.7282865 76.6929775,59.7066573 C76.5089888,59.6847472 76.3185393,59.7010393 76.1219101,59.7560955 C75.9325843,59.8086236 75.7789326,59.8999157 75.6615169,60.0305337 C75.5441011,60.1605899 75.4707865,60.3204213 75.441573,60.5097472 C75.4213483,60.6392416 75.4132022,60.7678933 75.4151685,60.8965449 C75.4185393,61.0249157 75.4233146,61.1527247 75.430618,61.2802528 C75.4452247,61.4861517 75.5146067,61.6412079 75.6382022,61.7448596 C75.7620787,61.8487921 75.9342697,61.9024438 76.1547753,61.9060955 C76.3185393,61.9080618 76.4820225,61.9083427 76.6449438,61.9077809 C76.8081461,61.9066573 76.9724719,61.9060955 77.1384831,61.9060955 L77.2446629,61.9060955 C77.2424157,61.9100281 77.2398876,61.9142416 77.2367978,61.9237921 C77.227809,61.9482303 77.2126404,61.9690169 77.1918539,61.985309 C77.1707865,62.001882 77.138764,62.0153652 77.0957865,62.0266011 C77.052809,62.0372753 76.997191,62.0426124 76.927809,62.0426124 L75.2230337,62.0426124 L75.1957865,62.0426124 L73.2202247,62.0426124 L73.2202247,62.5698596 L74.2780899,62.5698596 L74.2780899,62.5754775 C74.2634831,62.7650843 74.1997191,62.9052528 74.0879213,62.9965449 C73.9755618,63.0872753 73.8196629,63.1347472 73.619382,63.1386798 L72.5401685,63.1386798 C72.341573,63.1347472 72.1867978,63.088118 72.0758427,62.999073 C71.9646067,62.9094663 71.9008427,62.7732303 71.8842697,62.5895225 L71.8842697,61.5782865 L72.0702247,61.5782865 L72.0702247,61.0426124 L71.3460674,61.0426124 L71.3460674,62.7176124 C71.3679775,62.8650843 71.4087079,62.9973876 71.4691011,63.1139607 C71.5286517,63.2302528 71.6061798,63.3291292 71.6997191,63.410309 C71.7938202,63.4917697 71.9022472,63.5538483 72.0252809,63.5973876 C72.1480337,63.6412079 72.2814607,63.6639607 72.4255618,63.6656461 L73.7339888,63.6656461 C73.8797753,63.6639607 74.0129213,63.6412079 74.1342697,63.5973876 C74.2553371,63.5538483 74.3617978,63.4917697 74.4542135,63.410309 C74.5460674,63.3291292 74.6210674,63.2302528 74.6794944,63.1139607 C74.7376404,62.9973876 74.777809,62.865927 74.7997191,62.7201404 C74.8067416,62.6476685 74.8115169,62.5976685 74.8134831,62.5698596 L75.1957865,62.5698596 L75.2230337,62.5698596 L77.1738764,62.5698596 C77.388764,62.5558146 77.5449438,62.4875562 77.6424157,62.3667697 C77.7398876,62.2454213 77.7896067,62.0774438 77.7912921,61.8625562 L77.7912921,60.2501966 L77.9716292,60.2501966 L77.9716292,59.7204213 L77.2339888,59.7204213 Z" id="Fill-45" fill="#585B5C" mask="url(#mask-2)"/>
                <polygon id="Fill-46" fill="#585B5C" mask="url(#mask-2)" points="76.2255618 59.5370787 76.7668539 59.5370787 76.7668539 58.9932584 76.2255618 58.9932584"/>
                <path d="M10.6628933,22.3425562 L6.47328652,22.3425562 C6.18030899,22.3425562 5.96682584,22.3287921 5.83283708,22.3009831 C5.69800562,22.2734551 5.60896067,22.2358146 5.56570225,22.1883427 C5.52216292,22.1408708 5.48620787,22.0442416 5.45867978,21.8976124 C5.43087079,21.751264 5.41710674,21.5316011 5.41710674,21.2389045 L5.41710674,19.0195225 C5.47244382,18.1175562 5.68199438,17.4849719 6.04632022,17.120927 C6.41008427,16.756882 7.0033427,16.6066011 7.8266573,16.6698034 C8.14294944,16.6936798 8.47525281,16.7748596 8.82300562,16.9130618 C9.17103933,17.0515449 9.48985955,17.2158708 9.77890449,17.4054775 C10.0673876,17.5953652 10.2870506,17.7695225 10.4370506,17.9276685 C10.5870506,18.0860955 10.6628933,18.1810393 10.6628933,18.2125 L10.6628933,22.3425562 Z M10.6508146,14.7352528 C10.3421067,14.4821629 9.71963483,14.2625 8.78199438,14.0765449 C7.84435393,13.8908708 6.87300562,13.9324438 5.86823034,14.201264 C5.01401685,14.4464888 4.33339888,14.8639045 3.8269382,15.4532303 C3.32047753,16.0428371 2.99997191,16.7647472 2.86598315,17.6192416 C2.82581461,17.9122191 2.79435393,18.2521067 2.77047753,18.6397472 C2.74716292,19.0276685 2.72946629,19.4251404 2.71738764,19.8324438 C2.70530899,20.2400281 2.69969101,20.6394663 2.69969101,21.0313202 C2.69969101,21.4228933 2.70727528,21.7650281 2.72300562,22.0577247 C2.73929775,22.2080056 2.75671348,22.3526685 2.7766573,22.4908708 C2.79632022,22.6293539 2.7786236,22.6116573 2.72300562,22.4375 C2.41485955,22.5245787 2.04266854,22.7442416 1.60811798,23.0962079 C1.17216292,23.4484551 0.828623596,23.8577247 0.57497191,24.3245787 C0.322162921,24.7914326 0.153623596,25.2917135 0.070758427,25.8257022 C-0.0123876404,26.359691 -0.0222191011,26.9015449 0.0412640449,27.4515449 C0.104466292,28.0015449 0.234522472,28.5436798 0.432837079,29.0776685 C0.630308989,29.6113764 0.958679775,30.2228933 1.41766854,30.9110955 L3.89828652,29.8549157 C3.36766854,29.0478933 3.0280618,28.3830056 2.8772191,27.8610955 C2.7272191,27.3389045 2.68536517,26.8619382 2.7527809,26.4310393 C2.82019663,25.9998596 2.99997191,25.6299157 3.29294944,25.3214888 C3.58536517,25.0127809 3.98508427,24.8071629 4.49154494,24.7043539 C4.91064607,24.8939607 5.44098315,24.9891854 6.08171348,24.9891854 L13.3213202,24.9891854 L13.3213202,16.729073 L14.1280618,16.729073 L14.1280618,14.0824438 L10.6508146,14.0824438 L10.6508146,14.7352528 Z" id="Fill-47" fill="#585B5C" mask="url(#mask-2)"/>
                <path d="M69.8858989,15.1091292 C69.3401124,14.6936798 68.7075281,14.4029494 67.9873034,14.2369382 C67.2676404,14.0706461 66.4920787,14.043118 65.6611798,14.1537921 C64.8069663,14.2723315 63.9659551,14.4821629 63.1389888,14.7827247 C62.3123034,15.0835674 61.4285955,15.5147472 60.4867416,16.076264 L61.6027528,18.6279494 C62.0378652,18.3905899 62.4035955,18.2049157 62.6999438,18.0703652 C62.9971348,17.9358146 63.3266292,17.7953652 63.691236,17.648736 C64.055,17.5026685 64.4305618,17.3639045 64.8184831,17.2332865 C65.2061236,17.1029494 65.5623034,17.0021067 65.8867416,16.9307584 C66.3378652,16.8439607 66.7448876,16.8282303 67.1092135,16.8832865 C67.4729775,16.9389045 67.7814045,17.0577247 68.0347753,17.2391854 C68.2878652,17.4214888 68.4898315,17.6664326 68.6401124,17.9754213 C68.7903933,18.2838483 68.8696067,18.6636236 68.8774719,19.1144663 L68.8774719,22.3425562 L59.7867416,22.3425562 L59.68,22.3425562 L56.9235393,22.3425562 L56.9235393,19.6009831 C56.9156742,18.4144663 56.6249438,17.5341292 56.0510674,16.9605337 C55.477191,16.3869382 54.5934831,16.1001404 53.3991011,16.1001404 L47.346573,16.1001404 L54.0395506,10.6169944 L51.9387079,8.1366573 L49.8976966,9.84564607 L50.277191,10.3085674 L42.1361798,16.9900281 L43.6673596,18.8178371 L53.1378652,18.8178371 C53.4224157,18.8178371 53.635618,18.8316011 53.7785955,18.8594101 C53.9207303,18.8872191 54.016236,18.9245787 54.0637079,18.9720506 C54.1108989,19.0195225 54.1502247,19.1144663 54.1825281,19.256882 C54.2137079,19.3992978 54.2297191,19.6169944 54.2297191,19.909691 L54.2297191,22.3425562 L41.5075281,22.3425562 L41.3887079,22.3425562 L32.0016292,22.3425562 L31.8819663,22.3425562 L22.4948876,22.3425562 L22.3760674,22.3425562 L20.1333708,22.3425562 C19.888427,22.3425562 19.7061236,22.3304775 19.5875843,22.3071629 C19.468764,22.2832865 19.3898315,22.2518258 19.3499438,22.2122191 C19.3103371,22.1726124 19.2769101,22.0973315 19.249382,21.9863764 C19.221573,21.8759831 19.2035955,21.6978933 19.1957303,21.4526685 L19.1957303,11.0442416 L20.0030337,11.0442416 L20.0030337,8.3622191 L16.5016292,8.3622191 L16.5016292,21.8560393 C16.5179213,22.8529494 16.7962921,23.6203652 17.338427,24.1582865 C17.88,24.6964888 18.6339326,24.9734551 19.5991011,24.9891854 L22.3760674,24.9891854 L22.4948876,24.9891854 L31.8819663,24.9891854 L32.0016292,24.9891854 L41.3887079,24.9891854 L41.5075281,24.9891854 L59.6679213,24.9891854 L59.7867416,24.9891854 L71.6665169,24.9891854 L71.6665169,18.865309 C71.6502247,18.0504213 71.4864607,17.3245787 71.1735393,16.6875 C70.8614607,16.0507022 70.4316854,15.5245787 69.8858989,15.1091292" id="Fill-48" fill="#585B5C" mask="url(#mask-2)"/>
                <polygon id="Fill-49" fill="#585B5C" mask="url(#mask-2)" points="75.4468258 24.9892978 78.0934551 24.9892978 78.0934551 8.36233146 74.6521629 8.36233146 74.6521629 11.0204775 75.4468258 11.0204775"/>
                <path d="M76.573427,29.1191011 C76.3995506,29.1030899 76.2591011,29.0457865 76.1520787,28.9469101 C76.0453371,28.8480337 75.9841011,28.7036517 75.9683708,28.5140449 L75.9683708,28.3002809 C75.976236,28.0469101 76.0374719,27.8648876 76.1520787,27.7544944 C76.2669663,27.6432584 76.4355056,27.5882022 76.6568539,27.5882022 C76.6635955,27.5882022 76.6728652,27.5890449 76.6804494,27.5893258 L76.6804494,28.0747191 L78.4133146,28.0747191 L78.4133146,26.1876404 C77.9543258,26.0530899 77.6096629,25.9640449 77.3804494,25.9205056 C77.1509551,25.8772472 76.9180899,25.8553371 76.6804494,25.8553371 C76.34,25.8553371 76.0220225,25.9087079 75.7248315,26.0154494 C75.4282022,26.1224719 75.1689326,26.2766854 74.9478652,26.4786517 C74.7265169,26.6800562 74.5523596,26.9275281 74.4256742,27.2202247 C74.2987079,27.5129213 74.2360674,27.8331461 74.2360674,28.1814607 L74.2360674,28.5140449 C74.2360674,29.0438202 74.1916854,29.2455056 74.1051685,29.1191011 L73.8442135,29.1191011 L73.8442135,30.7924157 L78.5321348,30.7924157 L78.5321348,29.1191011 L76.573427,29.1191011 Z" id="Fill-50" fill="#585B5C" mask="url(#mask-2)"/>
                <path d="M8.7552809,33.3880056 L8.9047191,35.8798596 L8.45640449,35.8798596 C8.09095506,34.2351966 7.87494382,34.1354775 6.81174157,34.1354775 L3.78842697,34.1354775 L3.78842697,38.0059831 L6.44629213,38.0059831 C7.44292135,38.0059831 7.50949438,37.7242416 7.60921348,36.7436236 L8.05752809,36.7436236 L8.05752809,40.0826685 L7.60921348,40.0826685 C7.50949438,38.9863202 7.30977528,38.7540169 6.4297191,38.7540169 L3.78842697,38.7540169 L3.78842697,41.8599157 C3.78842697,42.7736798 3.93786517,42.973118 4.70191011,42.973118 L6.72859551,42.973118 C8.17382022,42.973118 8.63898876,42.7736798 9.07073034,41.1124438 L9.51960674,41.1124438 L9.27044944,43.7205899 L0.266516854,43.7205899 L0.266516854,43.2722753 C1.61230337,43.2722753 1.94432584,43.0394101 1.94432584,42.1593539 L1.94432584,34.9992416 C1.94432584,33.9360393 1.5288764,33.8366011 0.266516854,33.8366011 L0.266516854,33.3880056 L8.7552809,33.3880056 Z" id="Fill-51" fill="#585B5C" mask="url(#mask-2)"/>
                <path d="M15.6979494,33.3880056 L15.6979494,33.8366011 C14.4684551,33.8863202 14.2192978,34.1686236 14.2192978,35.4975562 L14.2192978,38.0725562 L20.2162079,38.0725562 L20.2162079,35.4809831 C20.2162079,34.1854775 19.9839045,33.8863202 18.688118,33.8366011 L18.688118,33.3880056 L23.5718258,33.3880056 L23.5718258,33.8366011 C22.3594663,33.9028933 22.0600281,34.1023315 22.0600281,35.3815449 L22.0600281,41.8101966 C22.0600281,42.923118 22.2931742,43.1891292 23.5718258,43.2722753 L23.5718258,43.7205899 L18.688118,43.7205899 L18.688118,43.2722753 C19.8676124,43.2222753 20.2162079,42.973118 20.2162079,41.7604775 L20.2162079,38.8200281 L14.2192978,38.8200281 L14.2192978,41.8933427 C14.2192978,42.989691 14.5684551,43.2222753 15.6979494,43.2722753 L15.6979494,43.7205899 L10.8968258,43.7205899 L10.8968258,43.2722753 C12.1428933,43.1891292 12.3754775,42.9068258 12.3754775,41.7936236 L12.3754775,35.431264 C12.3754775,34.1023315 12.0266011,33.8697472 10.8968258,33.8366011 L10.8968258,33.3880056 L15.6979494,33.3880056 Z" id="Fill-52" fill="#585B5C" mask="url(#mask-2)"/>
                <path d="M30.0492978,33.3880056 L30.0492978,33.8366011 C28.8200843,33.8366011 28.5046348,34.0523315 28.5046348,35.1821067 L28.5046348,38.4711517 C29.4015449,38.2388483 30.2821629,37.6073876 31.179073,36.5607584 C32.076264,35.5141292 32.5245787,34.7003652 32.5245787,34.3514888 C32.5245787,33.9691854 32.2422753,33.8366011 31.3782303,33.8366011 L31.3782303,33.3880056 L36.095927,33.3880056 L36.095927,33.8366011 C35.3984551,33.8366011 34.9004213,33.8863202 34.6009831,33.9860393 C33.8703652,34.2351966 33.7703652,34.4677809 32.6742978,35.9627247 C32.1757022,36.6273315 31.9268258,37.0096348 31.4610955,37.4579494 C30.9796348,37.9233989 30.6476124,38.1888483 30.4981742,38.2882865 L30.5313202,38.3214326 C31.0130618,38.3382865 31.7936798,39.0694663 33.0397472,40.498118 C34.2689607,41.8933427 35.0164326,42.7736798 35.3321629,42.973118 C35.6810393,43.1891292 35.8967697,43.2722753 36.9602528,43.2722753 L36.9602528,43.7205899 L31.7108146,43.7205899 L31.7108146,43.2722753 C32.3917135,43.2722753 32.6574438,43.1391292 32.6574438,42.8236798 C32.6574438,42.6242416 32.2917135,42.0593539 31.4948034,41.2455899 C29.9330056,39.6672191 29.5844101,39.0026124 28.5046348,39.0026124 L28.5046348,41.8267697 C28.5046348,43.006264 28.7700843,43.2722753 29.8501404,43.2722753 L30.0492978,43.2722753 L30.0492978,43.7205899 L25.0490169,43.7205899 L25.0490169,43.2722753 L25.281882,43.2722753 C26.4448034,43.2722753 26.6608146,42.989691 26.6608146,41.9262079 L26.6608146,35.0489607 C26.6608146,34.2183427 26.4113764,33.8366011 25.5310393,33.8366011 L25.0490169,33.8366011 L25.0490169,33.3880056 L30.0492978,33.3880056 Z" id="Fill-53" fill="#585B5C" mask="url(#mask-2)"/>
                <path d="M41.4437921,38.8866573 L44.6171067,38.8866573 L43.0221629,34.6835674 L41.4437921,38.8866573 Z M44.2845225,33.1223315 L47.3744101,41.3782303 C47.9890169,43.0394663 48.0724438,43.2720506 49.2185112,43.2720506 L49.2185112,43.7206461 L44.2845225,43.7206461 L44.2845225,43.2720506 C45.613736,43.2720506 45.9626124,43.1391854 45.9626124,42.6574438 C45.9626124,42.4745787 45.8963202,42.2257022 45.7800281,41.9099719 L44.9325562,39.7172753 L41.1283427,39.7172753 C40.9289045,40.281882 40.646882,40.9796348 40.4471629,41.5610955 C40.2648596,42.0594101 40.1485674,42.3251404 40.1485674,42.6408708 C40.1485674,43.1726124 40.646882,43.2720506 41.410927,43.2720506 L41.8098034,43.2720506 L41.8098034,43.7206461 L37.7561517,43.7206461 L37.7561517,43.2720506 C38.9685112,43.2554775 39.1019382,43.0063202 39.6336798,41.5445225 L42.5572753,33.5375 L42.4241292,33.1223315 L44.2845225,33.1223315 Z" id="Fill-54" fill="#585B5C" mask="url(#mask-2)"/>
                <path d="M54.0848034,38.8866573 L57.2575562,38.8866573 L55.6626124,34.6835674 L54.0848034,38.8866573 Z M56.9252528,33.1223315 L60.0151404,41.3782303 C60.6297472,43.0394663 60.7128933,43.2720506 61.8589607,43.2720506 L61.8589607,43.7206461 L56.9252528,43.7206461 L56.9252528,43.2720506 C58.2541854,43.2720506 58.6030618,43.1391854 58.6030618,42.6574438 C58.6030618,42.4745787 58.5367697,42.2257022 58.4204775,41.9099719 L57.5732865,39.7172753 L53.7687921,39.7172753 C53.5696348,40.281882 53.2870506,40.9796348 53.0878933,41.5610955 C52.905309,42.0594101 52.7890169,42.3251404 52.7890169,42.6408708 C52.7890169,43.1726124 53.2870506,43.2720506 54.0513764,43.2720506 L54.4502528,43.2720506 L54.4502528,43.7206461 L50.396882,43.7206461 L50.396882,43.2720506 C51.6092416,43.2554775 51.7423876,43.0063202 52.2741292,41.5445225 L55.1977247,33.5375 L55.0645787,33.1223315 L56.9252528,33.1223315 Z" id="Fill-55" fill="#585B5C" mask="url(#mask-2)"/>
                <path d="M67.0245225,33.3880056 L70.6124438,41.0792978 L74.0014888,33.3880056 L77.0745225,33.3880056 L77.0745225,33.8366011 C76.2770506,33.8366011 75.9950281,33.9691854 75.9950281,34.584073 L76.5762079,41.9762079 C76.6427809,42.8568258 76.7093539,42.973118 76.9582303,43.1391292 C77.1076685,43.2388483 77.3902528,43.2722753 77.9717135,43.2722753 L77.9717135,43.7205899 L73.2540169,43.7205899 L73.2540169,43.2722753 C74.4500843,43.2722753 74.7492416,43.006264 74.7492416,41.8767697 C74.7492416,41.1955899 74.4332303,37.6073876 74.2672191,35.0489607 L74.234073,35.0489607 L70.3964326,43.7205899 L69.8318258,43.7205899 L65.9278933,35.2652528 L65.8950281,35.2652528 C65.745309,37.4908146 65.4795787,41.5444663 65.4795787,41.9599157 C65.4795787,43.056264 65.7621629,43.2222753 66.8582303,43.2722753 L66.8582303,43.7205899 L63.170309,43.7205899 L63.170309,43.2722753 C64.084073,43.2722753 64.5158146,43.1725562 64.5992416,41.6939045 C64.7152528,39.5177809 65.0144101,35.5472753 65.0144101,35.0158146 C65.0144101,34.0357584 64.8483989,33.8366011 63.9514888,33.8366011 L63.9514888,33.3880056 L67.0245225,33.3880056 Z" id="Fill-56" fill="#585B5C" mask="url(#mask-2)"/>
                <polygon id="Fill-57" fill="#BBAC9B" mask="url(#mask-2)" points="134.322303 47.3086798 126.882978 40.0696348 118.475393 48.4769382 125.814719 55.8165449"/>
                <polygon id="Fill-58" fill="#537943" mask="url(#mask-2)" points="139.958371 21.8223315 134.044888 15.9051966 116.527472 33.4217697 109.284494 26.1956461 102.727753 32.7296348 115.88927 45.8911517"/>
                <polygon id="Fill-59" fill="#BBAC9B" mask="url(#mask-2)" points="100.142051 30.1436798 106.695421 23.6127809 100.602163 17.5335674 94.0670506 24.0689607"/>
                <polygon id="Fill-60" fill="#A9947E" mask="url(#mask-2)" points="123.195253 21.7348034 109.798343 8.33761236 103.187388 14.9477247 116.546096 28.2744101"/>
                <polygon id="Fill-61" fill="#A9947E" mask="url(#mask-2)" points="105.376826 40.5501124 100.283567 45.6430899 118.135815 63.4953371 123.229073 58.4023596"/>
                <polygon id="Fill-62" fill="#A9947E" mask="url(#mask-2)" points="142.544073 24.4081461 129.468792 37.4831461 136.90868 44.7227528 149.88368 31.7474719"/>
                <polygon id="Fill-63" fill="#BBAC9B" mask="url(#mask-2)" points="102.790843 37.9644101 91.4810112 26.6545787 86.3877528 31.7475562 97.6978652 43.0573876"/>
                <polygon id="Fill-64" fill="#BBAC9B" mask="url(#mask-2)" points="125.802612 19.1705056 131.602051 13.466573 118.135758 -7.98362624e-15 112.383792 5.75168539"/>
            </g>
        </g>
    </g>
</svg>